<svg xmlns="http://www.w3.org/2000/svg" xmlns:svg="http://www.w3.org/2000/svg" id="svg1632" width="227.904" height="156.114" version="1.1" viewBox="0 0 60.3 41.305"><title id="title2">SVG Image created as keyboard-matrix-testboard-no-diodes.svg date 2023/12/18 09:58:32</title><desc id="desc4">Image generated by Eeschema-SVG</desc><g style="fill:#000;fill-opacity:0;stroke:#000;stroke-width:.1524;stroke-linecap:round;stroke-linejoin:round;stroke-opacity:1" id="g108" transform="translate(-104.0638,-71.801)"><g style="fill:#840000;fill-opacity:0;stroke:#840000;stroke-width:.1524;stroke-linecap:round;stroke-linejoin:round;stroke-opacity:1" id="g46"><circle id="circle34" cx="118.618" cy="90.17" r=".508"/><path style="fill:none;fill-opacity:0;stroke:#840000;stroke-width:.1524;stroke-linecap:round;stroke-linejoin:round;stroke-opacity:1" id="path36" d="M 120.65,88.9 V 87.122"/><path style="fill:none;fill-opacity:0;stroke:#840000;stroke-width:.1524;stroke-linecap:round;stroke-linejoin:round;stroke-opacity:1" id="path38" d="m 123.19,88.9 h -5.08"/><circle id="circle40" cx="122.682" cy="90.17" r=".508"/><path id="path42" d="m 118.11,90.17 h -2.54"/><path id="path44" d="m 123.19,90.17 h 2.54"/></g><g style="fill:#006464;fill-opacity:0;stroke:#006464;stroke-width:.1524;stroke-linecap:round;stroke-linejoin:round;stroke-opacity:1" id="g106"><text id="text48" x="120.65" y="93.345" font-size="1.693" lengthAdjust="spacingAndGlyphs" opacity="0" text-anchor="middle" textLength="3.997">SW4</text><g id="g104" class="stroked-text"><desc id="desc50">SW4</desc><path id="path52" d="m 118.9567,93.2291 0.1814,0.0604"/><path id="path54" d="m 119.1381,93.2895 h 0.3024"/><path id="path56" d="m 119.4405,93.2895 0.1209,-0.0604"/><path id="path58" d="m 119.5614,93.2291 0.0605,-0.0605"/><path id="path60" d="m 119.6219,93.1686 0.0605,-0.121"/><path id="path62" d="M 119.6824,93.0476 V 92.9267"/><path id="path64" d="m 119.6824,92.9267 -0.0605,-0.121"/><path id="path66" d="m 119.6219,92.8057 -0.0605,-0.0605"/><path id="path68" d="m 119.5614,92.7452 -0.1209,-0.0604"/><path id="path70" d="m 119.4405,92.6848 -0.2419,-0.0605"/><path id="path72" d="m 119.1986,92.6243 -0.121,-0.0605"/><path id="path74" d="m 119.0776,92.5638 -0.0605,-0.0605"/><path id="path76" d="m 119.0171,92.5033 -0.0604,-0.1209"/><path id="path78" d="m 118.9567,92.3824 v -0.121"/><path id="path80" d="m 118.9567,92.2614 0.0604,-0.1209"/><path id="path82" d="M 119.0171,92.1405 119.0776,92.08"/><path id="path84" d="m 119.0776,92.08 0.121,-0.0605"/><path id="path86" d="m 119.1986,92.0195 h 0.3023"/><path id="path88" d="m 119.5009,92.0195 0.1815,0.0605"/><path id="path90" d="m 120.1057,92.0195 0.3024,1.27"/><path id="path92" d="M 120.4081,93.2895 120.65,92.3824"/><path id="path94" d="m 120.65,92.3824 0.2419,0.9071"/><path id="path96" d="m 120.8919,93.2895 0.3024,-1.27"/><path id="path98" d="m 122.2223,92.4429 v 0.8466"/><path id="path100" d="m 121.9199,91.9591 -0.3023,0.9071"/><path id="path102" d="m 121.6176,92.8662 h 0.7861"/></g></g></g><g style="fill:#006464;fill-opacity:0;stroke:#006464;stroke-width:.1524;stroke-linecap:round;stroke-linejoin:round;stroke-opacity:1" id="g184" transform="translate(-104.0638,-71.801)"><g style="fill:#840000;fill-opacity:0;stroke:#840000;stroke-width:.1524;stroke-linecap:round;stroke-linejoin:round;stroke-opacity:1" id="g124"><circle id="circle112" cx="118.618" cy="101.6" r=".508"/><path style="fill:none;fill-opacity:0;stroke:#840000;stroke-width:.1524;stroke-linecap:round;stroke-linejoin:round;stroke-opacity:1" id="path114" d="M 120.65,100.33 V 98.552"/><path style="fill:none;fill-opacity:0;stroke:#840000;stroke-width:.1524;stroke-linecap:round;stroke-linejoin:round;stroke-opacity:1" id="path116" d="m 123.19,100.33 h -5.08"/><circle id="circle118" cx="122.682" cy="101.6" r=".508"/><path id="path120" d="m 118.11,101.6 h -2.54"/><path id="path122" d="m 123.19,101.6 h 2.54"/></g><g style="fill:#006464;fill-opacity:0;stroke:#006464;stroke-width:.1524;stroke-linecap:round;stroke-linejoin:round;stroke-opacity:1" id="g182"><text id="text126" x="120.65" y="104.775" font-size="1.693" lengthAdjust="spacingAndGlyphs" opacity="0" text-anchor="middle" textLength="3.997">SW7</text><g id="g180" class="stroked-text"><desc id="desc128">SW7</desc><path id="path130" d="m 118.9567,104.6591 0.1814,0.0604"/><path id="path132" d="m 119.1381,104.7195 h 0.3024"/><path id="path134" d="m 119.4405,104.7195 0.1209,-0.0604"/><path id="path136" d="m 119.5614,104.6591 0.0605,-0.0605"/><path id="path138" d="m 119.6219,104.5986 0.0605,-0.121"/><path id="path140" d="m 119.6824,104.4776 v -0.1209"/><path id="path142" d="m 119.6824,104.3567 -0.0605,-0.121"/><path id="path144" d="m 119.6219,104.2357 -0.0605,-0.0605"/><path id="path146" d="m 119.5614,104.1752 -0.1209,-0.0604"/><path id="path148" d="m 119.4405,104.1148 -0.2419,-0.0605"/><path id="path150" d="m 119.1986,104.0543 -0.121,-0.0605"/><path id="path152" d="m 119.0776,103.9938 -0.0605,-0.0605"/><path id="path154" d="m 119.0171,103.9333 -0.0604,-0.1209"/><path id="path156" d="m 118.9567,103.8124 v -0.121"/><path id="path158" d="m 118.9567,103.6914 0.0604,-0.1209"/><path id="path160" d="m 119.0171,103.5705 0.0605,-0.0605"/><path id="path162" d="m 119.0776,103.51 0.121,-0.0605"/><path id="path164" d="m 119.1986,103.4495 h 0.3023"/><path id="path166" d="m 119.5009,103.4495 0.1815,0.0605"/><path id="path168" d="m 120.1057,103.4495 0.3024,1.27"/><path id="path170" d="m 120.4081,104.7195 0.2419,-0.9071"/><path id="path172" d="m 120.65,103.8124 0.2419,0.9071"/><path id="path174" d="m 120.8919,104.7195 0.3024,-1.27"/><path id="path176" d="m 121.5571,103.4495 h 0.8466"/><path id="path178" d="m 122.4037,103.4495 -0.5442,1.27"/></g></g></g><g style="fill:#006464;fill-opacity:0;stroke:#006464;stroke-width:.1524;stroke-linecap:round;stroke-linejoin:round;stroke-opacity:1" id="g318" transform="translate(-104.0638,-71.801)"><g style="fill:#840000;fill-opacity:0;stroke:#840000;stroke-width:.1524;stroke-linecap:round;stroke-linejoin:round;stroke-opacity:1" id="g200"><circle id="circle188" cx="136.398" cy="101.6" r=".508"/><path style="fill:none;fill-opacity:0;stroke:#840000;stroke-width:.1524;stroke-linecap:round;stroke-linejoin:round;stroke-opacity:1" id="path190" d="M 138.43,100.33 V 98.552"/><path style="fill:none;fill-opacity:0;stroke:#840000;stroke-width:.1524;stroke-linecap:round;stroke-linejoin:round;stroke-opacity:1" id="path192" d="m 140.97,100.33 h -5.08"/><circle id="circle194" cx="140.462" cy="101.6" r=".508"/><path id="path196" d="m 135.89,101.6 h -2.54"/><path id="path198" d="m 140.97,101.6 h 2.54"/></g><g style="fill:#006464;fill-opacity:0;stroke:#006464;stroke-width:.1524;stroke-linecap:round;stroke-linejoin:round;stroke-opacity:1" id="g316"><text id="text202" x="138.43" y="104.775" font-size="1.693" lengthAdjust="spacingAndGlyphs" opacity="0" text-anchor="middle" textLength="3.997">SW8</text><g id="g314" class="stroked-text"><desc id="desc204">SW8</desc><path id="path206" d="m 136.7367,104.6591 0.1814,0.0604"/><path id="path208" d="m 136.9181,104.7195 h 0.3024"/><path id="path210" d="m 137.2205,104.7195 0.1209,-0.0604"/><path id="path212" d="m 137.3414,104.6591 0.0605,-0.0605"/><path id="path214" d="m 137.4019,104.5986 0.0605,-0.121"/><path id="path216" d="m 137.4624,104.4776 v -0.1209"/><path id="path218" d="m 137.4624,104.3567 -0.0605,-0.121"/><path id="path220" d="m 137.4019,104.2357 -0.0605,-0.0605"/><path id="path222" d="m 137.3414,104.1752 -0.1209,-0.0604"/><path id="path224" d="m 137.2205,104.1148 -0.2419,-0.0605"/><path id="path226" d="m 136.9786,104.0543 -0.121,-0.0605"/><path id="path228" d="m 136.8576,103.9938 -0.0605,-0.0605"/><path id="path230" d="m 136.7971,103.9333 -0.0604,-0.1209"/><path id="path232" d="m 136.7367,103.8124 v -0.121"/><path id="path234" d="m 136.7367,103.6914 0.0604,-0.1209"/><path id="path236" d="m 136.7971,103.5705 0.0605,-0.0605"/><path id="path238" d="m 136.8576,103.51 0.121,-0.0605"/><path id="path240" d="m 136.9786,103.4495 h 0.3023"/><path id="path242" d="m 137.2809,103.4495 0.1815,0.0605"/><path id="path244" d="m 137.8857,103.4495 0.3024,1.27"/><path id="path246" d="m 138.1881,104.7195 0.2419,-0.9071"/><path id="path248" d="m 138.43,103.8124 0.2419,0.9071"/><path id="path250" d="m 138.6719,104.7195 0.3024,-1.27"/><path id="path252" d="m 139.6395,103.9938 -0.121,-0.0605"/><path id="path254" d="m 139.5185,103.9333 -0.0605,-0.0604"/><path id="path256" d="m 139.458,103.8729 -0.0604,-0.121"/><path id="path258" d="m 139.3976,103.7519 v -0.0605"/><path id="path260" d="m 139.3976,103.6914 0.0604,-0.1209"/><path id="path262" d="m 139.458,103.5705 0.0605,-0.0605"/><path id="path264" d="m 139.5185,103.51 0.121,-0.0605"/><path id="path266" d="m 139.6395,103.4495 h 0.2419"/><path id="path268" d="m 139.8814,103.4495 0.1209,0.0605"/><path id="path270" d="m 140.0023,103.51 0.0605,0.0605"/><path id="path272" d="m 140.0628,103.5705 0.0605,0.1209"/><path id="path274" d="m 140.1233,103.6914 v 0.0605"/><path id="path276" d="m 140.1233,103.7519 -0.0605,0.121"/><path id="path278" d="m 140.0628,103.8729 -0.0605,0.0604"/><path id="path280" d="m 140.0023,103.9333 -0.1209,0.0605"/><path id="path282" d="m 139.8814,103.9938 h -0.2419"/><path id="path284" d="m 139.6395,103.9938 -0.121,0.0605"/><path id="path286" d="m 139.5185,104.0543 -0.0605,0.0605"/><path id="path288" d="m 139.458,104.1148 -0.0604,0.1209"/><path id="path290" d="m 139.3976,104.2357 v 0.2419"/><path id="path292" d="m 139.3976,104.4776 0.0604,0.121"/><path id="path294" d="m 139.458,104.5986 0.0605,0.0605"/><path id="path296" d="m 139.5185,104.6591 0.121,0.0604"/><path id="path298" d="m 139.6395,104.7195 h 0.2419"/><path id="path300" d="m 139.8814,104.7195 0.1209,-0.0604"/><path id="path302" d="m 140.0023,104.6591 0.0605,-0.0605"/><path id="path304" d="m 140.0628,104.5986 0.0605,-0.121"/><path id="path306" d="m 140.1233,104.4776 v -0.2419"/><path id="path308" d="m 140.1233,104.2357 -0.0605,-0.1209"/><path id="path310" d="m 140.0628,104.1148 -0.0605,-0.0605"/><path id="path312" d="m 140.0023,104.0543 -0.1209,-0.0605"/></g></g></g><g style="fill:#006464;fill-opacity:0;stroke:#006464;stroke-width:.1524;stroke-linecap:round;stroke-linejoin:round;stroke-opacity:1" id="g400" transform="translate(-104.0638,-71.801)"><g style="fill:#840000;fill-opacity:0;stroke:#840000;stroke-width:.1524;stroke-linecap:round;stroke-linejoin:round;stroke-opacity:1" id="g334"><circle id="circle322" cx="118.618" cy="78.74" r=".508"/><path style="fill:none;fill-opacity:0;stroke:#840000;stroke-width:.1524;stroke-linecap:round;stroke-linejoin:round;stroke-opacity:1" id="path324" d="M 120.65,77.47 V 75.692"/><path style="fill:none;fill-opacity:0;stroke:#840000;stroke-width:.1524;stroke-linecap:round;stroke-linejoin:round;stroke-opacity:1" id="path326" d="m 123.19,77.47 h -5.08"/><circle id="circle328" cx="122.682" cy="78.74" r=".508"/><path id="path330" d="m 118.11,78.74 h -2.54"/><path id="path332" d="m 123.19,78.74 h 2.54"/></g><g style="fill:#006464;fill-opacity:0;stroke:#006464;stroke-width:.1524;stroke-linecap:round;stroke-linejoin:round;stroke-opacity:1" id="g398"><text id="text336" x="120.65" y="81.915" font-size="1.693" lengthAdjust="spacingAndGlyphs" opacity="0" text-anchor="middle" textLength="3.997">SW1</text><g id="g396" class="stroked-text"><desc id="desc338">SW1</desc><path id="path340" d="m 118.9567,81.7991 0.1814,0.0604"/><path id="path342" d="m 119.1381,81.8595 h 0.3024"/><path id="path344" d="m 119.4405,81.8595 0.1209,-0.0604"/><path id="path346" d="m 119.5614,81.7991 0.0605,-0.0605"/><path id="path348" d="m 119.6219,81.7386 0.0605,-0.121"/><path id="path350" d="M 119.6824,81.6176 V 81.4967"/><path id="path352" d="m 119.6824,81.4967 -0.0605,-0.121"/><path id="path354" d="m 119.6219,81.3757 -0.0605,-0.0605"/><path id="path356" d="m 119.5614,81.3152 -0.1209,-0.0604"/><path id="path358" d="m 119.4405,81.2548 -0.2419,-0.0605"/><path id="path360" d="m 119.1986,81.1943 -0.121,-0.0605"/><path id="path362" d="m 119.0776,81.1338 -0.0605,-0.0605"/><path id="path364" d="m 119.0171,81.0733 -0.0604,-0.1209"/><path id="path366" d="m 118.9567,80.9524 v -0.121"/><path id="path368" d="m 118.9567,80.8314 0.0604,-0.1209"/><path id="path370" d="M 119.0171,80.7105 119.0776,80.65"/><path id="path372" d="m 119.0776,80.65 0.121,-0.0605"/><path id="path374" d="m 119.1986,80.5895 h 0.3023"/><path id="path376" d="m 119.5009,80.5895 0.1815,0.0605"/><path id="path378" d="m 120.1057,80.5895 0.3024,1.27"/><path id="path380" d="M 120.4081,81.8595 120.65,80.9524"/><path id="path382" d="m 120.65,80.9524 0.2419,0.9071"/><path id="path384" d="m 120.8919,81.8595 0.3024,-1.27"/><path id="path386" d="m 122.3433,81.8595 h -0.7257"/><path id="path388" d="m 121.9804,81.8595 v -1.27"/><path id="path390" d="m 121.9804,80.5895 -0.1209,0.1815"/><path id="path392" d="m 121.8595,80.771 -0.121,0.1209"/><path id="path394" d="m 121.7385,80.8919 -0.1209,0.0605"/></g></g></g><g style="fill:#006464;fill-opacity:0;stroke:#006464;stroke-width:.1524;stroke-linecap:round;stroke-linejoin:round;stroke-opacity:1" id="g502" transform="translate(-104.0638,-71.801)"><g style="fill:#840000;fill-opacity:0;stroke:#840000;stroke-width:.1524;stroke-linecap:round;stroke-linejoin:round;stroke-opacity:1" id="g416"><circle id="circle404" cx="136.398" cy="90.17" r=".508"/><path style="fill:none;fill-opacity:0;stroke:#840000;stroke-width:.1524;stroke-linecap:round;stroke-linejoin:round;stroke-opacity:1" id="path406" d="M 138.43,88.9 V 87.122"/><path style="fill:none;fill-opacity:0;stroke:#840000;stroke-width:.1524;stroke-linecap:round;stroke-linejoin:round;stroke-opacity:1" id="path408" d="m 140.97,88.9 h -5.08"/><circle id="circle410" cx="140.462" cy="90.17" r=".508"/><path id="path412" d="m 135.89,90.17 h -2.54"/><path id="path414" d="m 140.97,90.17 h 2.54"/></g><g style="fill:#006464;fill-opacity:0;stroke:#006464;stroke-width:.1524;stroke-linecap:round;stroke-linejoin:round;stroke-opacity:1" id="g500"><text id="text418" x="138.43" y="93.345" font-size="1.693" lengthAdjust="spacingAndGlyphs" opacity="0" text-anchor="middle" textLength="3.997">SW5</text><g id="g498" class="stroked-text"><desc id="desc420">SW5</desc><path id="path422" d="m 136.7367,93.2291 0.1814,0.0604"/><path id="path424" d="m 136.9181,93.2895 h 0.3024"/><path id="path426" d="m 137.2205,93.2895 0.1209,-0.0604"/><path id="path428" d="m 137.3414,93.2291 0.0605,-0.0605"/><path id="path430" d="m 137.4019,93.1686 0.0605,-0.121"/><path id="path432" d="M 137.4624,93.0476 V 92.9267"/><path id="path434" d="m 137.4624,92.9267 -0.0605,-0.121"/><path id="path436" d="m 137.4019,92.8057 -0.0605,-0.0605"/><path id="path438" d="m 137.3414,92.7452 -0.1209,-0.0604"/><path id="path440" d="m 137.2205,92.6848 -0.2419,-0.0605"/><path id="path442" d="m 136.9786,92.6243 -0.121,-0.0605"/><path id="path444" d="m 136.8576,92.5638 -0.0605,-0.0605"/><path id="path446" d="m 136.7971,92.5033 -0.0604,-0.1209"/><path id="path448" d="m 136.7367,92.3824 v -0.121"/><path id="path450" d="m 136.7367,92.2614 0.0604,-0.1209"/><path id="path452" d="M 136.7971,92.1405 136.8576,92.08"/><path id="path454" d="m 136.8576,92.08 0.121,-0.0605"/><path id="path456" d="m 136.9786,92.0195 h 0.3023"/><path id="path458" d="m 137.2809,92.0195 0.1815,0.0605"/><path id="path460" d="m 137.8857,92.0195 0.3024,1.27"/><path id="path462" d="M 138.1881,93.2895 138.43,92.3824"/><path id="path464" d="m 138.43,92.3824 0.2419,0.9071"/><path id="path466" d="m 138.6719,93.2895 0.3024,-1.27"/><path id="path468" d="M 140.0628,92.0195 H 139.458"/><path id="path470" d="m 139.458,92.0195 -0.0604,0.6048"/><path id="path472" d="m 139.3976,92.6243 0.0604,-0.0605"/><path id="path474" d="m 139.458,92.5638 0.121,-0.0605"/><path id="path476" d="m 139.579,92.5033 h 0.3024"/><path id="path478" d="m 139.8814,92.5033 0.1209,0.0605"/><path id="path480" d="m 140.0023,92.5638 0.0605,0.0605"/><path id="path482" d="m 140.0628,92.6243 0.0605,0.1209"/><path id="path484" d="m 140.1233,92.7452 v 0.3024"/><path id="path486" d="m 140.1233,93.0476 -0.0605,0.121"/><path id="path488" d="m 140.0628,93.1686 -0.0605,0.0605"/><path id="path490" d="m 140.0023,93.2291 -0.1209,0.0604"/><path id="path492" d="M 139.8814,93.2895 H 139.579"/><path id="path494" d="m 139.579,93.2895 -0.121,-0.0604"/><path id="path496" d="m 139.458,93.2291 -0.0604,-0.0605"/></g></g></g><g style="fill:#006464;fill-opacity:0;stroke:#006464;stroke-width:.1524;stroke-linecap:round;stroke-linejoin:round;stroke-opacity:1" id="g616" transform="translate(-104.0638,-71.801)"><g style="fill:#840000;fill-opacity:0;stroke:#840000;stroke-width:.1524;stroke-linecap:round;stroke-linejoin:round;stroke-opacity:1" id="g518"><circle id="circle506" cx="154.178" cy="101.6" r=".508"/><path style="fill:none;fill-opacity:0;stroke:#840000;stroke-width:.1524;stroke-linecap:round;stroke-linejoin:round;stroke-opacity:1" id="path508" d="M 156.21,100.33 V 98.552"/><path style="fill:none;fill-opacity:0;stroke:#840000;stroke-width:.1524;stroke-linecap:round;stroke-linejoin:round;stroke-opacity:1" id="path510" d="m 158.75,100.33 h -5.08"/><circle id="circle512" cx="158.242" cy="101.6" r=".508"/><path id="path514" d="m 153.67,101.6 h -2.54"/><path id="path516" d="m 158.75,101.6 h 2.54"/></g><g style="fill:#006464;fill-opacity:0;stroke:#006464;stroke-width:.1524;stroke-linecap:round;stroke-linejoin:round;stroke-opacity:1" id="g614"><text id="text520" x="156.21" y="104.775" font-size="1.693" lengthAdjust="spacingAndGlyphs" opacity="0" text-anchor="middle" textLength="3.997">SW9</text><g id="g612" class="stroked-text"><desc id="desc522">SW9</desc><path id="path524" d="m 154.5167,104.6591 0.1814,0.0604"/><path id="path526" d="m 154.6981,104.7195 h 0.3024"/><path id="path528" d="m 155.0005,104.7195 0.1209,-0.0604"/><path id="path530" d="m 155.1214,104.6591 0.0605,-0.0605"/><path id="path532" d="m 155.1819,104.5986 0.0605,-0.121"/><path id="path534" d="m 155.2424,104.4776 v -0.1209"/><path id="path536" d="m 155.2424,104.3567 -0.0605,-0.121"/><path id="path538" d="m 155.1819,104.2357 -0.0605,-0.0605"/><path id="path540" d="m 155.1214,104.1752 -0.1209,-0.0604"/><path id="path542" d="m 155.0005,104.1148 -0.2419,-0.0605"/><path id="path544" d="m 154.7586,104.0543 -0.121,-0.0605"/><path id="path546" d="m 154.6376,103.9938 -0.0605,-0.0605"/><path id="path548" d="m 154.5771,103.9333 -0.0604,-0.1209"/><path id="path550" d="m 154.5167,103.8124 v -0.121"/><path id="path552" d="m 154.5167,103.6914 0.0604,-0.1209"/><path id="path554" d="m 154.5771,103.5705 0.0605,-0.0605"/><path id="path556" d="m 154.6376,103.51 0.121,-0.0605"/><path id="path558" d="m 154.7586,103.4495 h 0.3023"/><path id="path560" d="m 155.0609,103.4495 0.1815,0.0605"/><path id="path562" d="m 155.6657,103.4495 0.3024,1.27"/><path id="path564" d="m 155.9681,104.7195 0.2419,-0.9071"/><path id="path566" d="m 156.21,103.8124 0.2419,0.9071"/><path id="path568" d="m 156.4519,104.7195 0.3024,-1.27"/><path id="path570" d="m 157.2985,104.7195 h 0.2419"/><path id="path572" d="m 157.5404,104.7195 0.121,-0.0604"/><path id="path574" d="m 157.6614,104.6591 0.0604,-0.0605"/><path id="path576" d="m 157.7218,104.5986 0.121,-0.1815"/><path id="path578" d="m 157.8428,104.4171 0.0605,-0.2419"/><path id="path580" d="m 157.9033,104.1752 v -0.4838"/><path id="path582" d="m 157.9033,103.6914 -0.0605,-0.1209"/><path id="path584" d="M 157.8428,103.5705 157.7823,103.51"/><path id="path586" d="m 157.7823,103.51 -0.1209,-0.0605"/><path id="path588" d="m 157.6614,103.4495 h -0.2419"/><path id="path590" d="m 157.4195,103.4495 -0.121,0.0605"/><path id="path592" d="m 157.2985,103.51 -0.0605,0.0605"/><path id="path594" d="m 157.238,103.5705 -0.0604,0.1209"/><path id="path596" d="m 157.1776,103.6914 v 0.3024"/><path id="path598" d="m 157.1776,103.9938 0.0604,0.121"/><path id="path600" d="m 157.238,104.1148 0.0605,0.0604"/><path id="path602" d="m 157.2985,104.1752 0.121,0.0605"/><path id="path604" d="m 157.4195,104.2357 h 0.2419"/><path id="path606" d="m 157.6614,104.2357 0.1209,-0.0605"/><path id="path608" d="m 157.7823,104.1752 0.0605,-0.0604"/><path id="path610" d="m 157.8428,104.1148 0.0605,-0.121"/></g></g></g><g style="fill:#006464;fill-opacity:0;stroke:#006464;stroke-width:.1524;stroke-linecap:round;stroke-linejoin:round;stroke-opacity:1" id="g708" transform="translate(-104.0638,-71.801)"><g style="fill:#840000;fill-opacity:0;stroke:#840000;stroke-width:.1524;stroke-linecap:round;stroke-linejoin:round;stroke-opacity:1" id="g632"><circle id="circle620" cx="136.398" cy="78.74" r=".508"/><path style="fill:none;fill-opacity:0;stroke:#840000;stroke-width:.1524;stroke-linecap:round;stroke-linejoin:round;stroke-opacity:1" id="path622" d="M 138.43,77.47 V 75.692"/><path style="fill:none;fill-opacity:0;stroke:#840000;stroke-width:.1524;stroke-linecap:round;stroke-linejoin:round;stroke-opacity:1" id="path624" d="m 140.97,77.47 h -5.08"/><circle id="circle626" cx="140.462" cy="78.74" r=".508"/><path id="path628" d="m 135.89,78.74 h -2.54"/><path id="path630" d="m 140.97,78.74 h 2.54"/></g><g style="fill:#006464;fill-opacity:0;stroke:#006464;stroke-width:.1524;stroke-linecap:round;stroke-linejoin:round;stroke-opacity:1" id="g706"><text id="text634" x="138.43" y="81.915" font-size="1.693" lengthAdjust="spacingAndGlyphs" opacity="0" text-anchor="middle" textLength="3.997">SW2</text><g id="g704" class="stroked-text"><desc id="desc636">SW2</desc><path id="path638" d="m 136.7367,81.7991 0.1814,0.0604"/><path id="path640" d="m 136.9181,81.8595 h 0.3024"/><path id="path642" d="m 137.2205,81.8595 0.1209,-0.0604"/><path id="path644" d="m 137.3414,81.7991 0.0605,-0.0605"/><path id="path646" d="m 137.4019,81.7386 0.0605,-0.121"/><path id="path648" d="M 137.4624,81.6176 V 81.4967"/><path id="path650" d="m 137.4624,81.4967 -0.0605,-0.121"/><path id="path652" d="m 137.4019,81.3757 -0.0605,-0.0605"/><path id="path654" d="m 137.3414,81.3152 -0.1209,-0.0604"/><path id="path656" d="m 137.2205,81.2548 -0.2419,-0.0605"/><path id="path658" d="m 136.9786,81.1943 -0.121,-0.0605"/><path id="path660" d="m 136.8576,81.1338 -0.0605,-0.0605"/><path id="path662" d="m 136.7971,81.0733 -0.0604,-0.1209"/><path id="path664" d="m 136.7367,80.9524 v -0.121"/><path id="path666" d="m 136.7367,80.8314 0.0604,-0.1209"/><path id="path668" d="M 136.7971,80.7105 136.8576,80.65"/><path id="path670" d="m 136.8576,80.65 0.121,-0.0605"/><path id="path672" d="m 136.9786,80.5895 h 0.3023"/><path id="path674" d="m 137.2809,80.5895 0.1815,0.0605"/><path id="path676" d="m 137.8857,80.5895 0.3024,1.27"/><path id="path678" d="M 138.1881,81.8595 138.43,80.9524"/><path id="path680" d="m 138.43,80.9524 0.2419,0.9071"/><path id="path682" d="m 138.6719,81.8595 0.3024,-1.27"/><path id="path684" d="M 139.3976,80.7105 139.458,80.65"/><path id="path686" d="m 139.458,80.65 0.121,-0.0605"/><path id="path688" d="m 139.579,80.5895 h 0.3024"/><path id="path690" d="m 139.8814,80.5895 0.1209,0.0605"/><path id="path692" d="m 140.0023,80.65 0.0605,0.0605"/><path id="path694" d="m 140.0628,80.7105 0.0605,0.1209"/><path id="path696" d="m 140.1233,80.8314 v 0.121"/><path id="path698" d="m 140.1233,80.9524 -0.0605,0.1814"/><path id="path700" d="m 140.0628,81.1338 -0.7257,0.7257"/><path id="path702" d="m 139.3371,81.8595 h 0.7862"/></g></g></g><g style="fill:#006464;fill-opacity:0;stroke:#006464;stroke-width:.1524;stroke-linecap:round;stroke-linejoin:round;stroke-opacity:1" id="g822" transform="translate(-104.0638,-71.801)"><g style="fill:#840000;fill-opacity:0;stroke:#840000;stroke-width:.1524;stroke-linecap:round;stroke-linejoin:round;stroke-opacity:1" id="g724"><circle id="circle712" cx="154.178" cy="90.17" r=".508"/><path style="fill:none;fill-opacity:0;stroke:#840000;stroke-width:.1524;stroke-linecap:round;stroke-linejoin:round;stroke-opacity:1" id="path714" d="M 156.21,88.9 V 87.122"/><path style="fill:none;fill-opacity:0;stroke:#840000;stroke-width:.1524;stroke-linecap:round;stroke-linejoin:round;stroke-opacity:1" id="path716" d="m 158.75,88.9 h -5.08"/><circle id="circle718" cx="158.242" cy="90.17" r=".508"/><path id="path720" d="m 153.67,90.17 h -2.54"/><path id="path722" d="m 158.75,90.17 h 2.54"/></g><g style="fill:#006464;fill-opacity:0;stroke:#006464;stroke-width:.1524;stroke-linecap:round;stroke-linejoin:round;stroke-opacity:1" id="g820"><text id="text726" x="156.21" y="93.345" font-size="1.693" lengthAdjust="spacingAndGlyphs" opacity="0" text-anchor="middle" textLength="3.997">SW6</text><g id="g818" class="stroked-text"><desc id="desc728">SW6</desc><path id="path730" d="m 154.5167,93.2291 0.1814,0.0604"/><path id="path732" d="m 154.6981,93.2895 h 0.3024"/><path id="path734" d="m 155.0005,93.2895 0.1209,-0.0604"/><path id="path736" d="m 155.1214,93.2291 0.0605,-0.0605"/><path id="path738" d="m 155.1819,93.1686 0.0605,-0.121"/><path id="path740" d="M 155.2424,93.0476 V 92.9267"/><path id="path742" d="m 155.2424,92.9267 -0.0605,-0.121"/><path id="path744" d="m 155.1819,92.8057 -0.0605,-0.0605"/><path id="path746" d="m 155.1214,92.7452 -0.1209,-0.0604"/><path id="path748" d="m 155.0005,92.6848 -0.2419,-0.0605"/><path id="path750" d="m 154.7586,92.6243 -0.121,-0.0605"/><path id="path752" d="m 154.6376,92.5638 -0.0605,-0.0605"/><path id="path754" d="m 154.5771,92.5033 -0.0604,-0.1209"/><path id="path756" d="m 154.5167,92.3824 v -0.121"/><path id="path758" d="m 154.5167,92.2614 0.0604,-0.1209"/><path id="path760" d="M 154.5771,92.1405 154.6376,92.08"/><path id="path762" d="m 154.6376,92.08 0.121,-0.0605"/><path id="path764" d="m 154.7586,92.0195 h 0.3023"/><path id="path766" d="m 155.0609,92.0195 0.1815,0.0605"/><path id="path768" d="m 155.6657,92.0195 0.3024,1.27"/><path id="path770" d="M 155.9681,93.2895 156.21,92.3824"/><path id="path772" d="m 156.21,92.3824 0.2419,0.9071"/><path id="path774" d="m 156.4519,93.2895 0.3024,-1.27"/><path id="path776" d="m 157.7823,92.0195 h -0.2419"/><path id="path778" d="M 157.5404,92.0195 157.4195,92.08"/><path id="path780" d="m 157.4195,92.08 -0.0605,0.0605"/><path id="path782" d="m 157.359,92.1405 -0.121,0.1814"/><path id="path784" d="m 157.238,92.3219 -0.0604,0.2419"/><path id="path786" d="m 157.1776,92.5638 v 0.4838"/><path id="path788" d="m 157.1776,93.0476 0.0604,0.121"/><path id="path790" d="m 157.238,93.1686 0.0605,0.0605"/><path id="path792" d="m 157.2985,93.2291 0.121,0.0604"/><path id="path794" d="m 157.4195,93.2895 h 0.2419"/><path id="path796" d="m 157.6614,93.2895 0.1209,-0.0604"/><path id="path798" d="m 157.7823,93.2291 0.0605,-0.0605"/><path id="path800" d="m 157.8428,93.1686 0.0605,-0.121"/><path id="path802" d="M 157.9033,93.0476 V 92.7452"/><path id="path804" d="m 157.9033,92.7452 -0.0605,-0.1209"/><path id="path806" d="m 157.8428,92.6243 -0.0605,-0.0605"/><path id="path808" d="m 157.7823,92.5638 -0.1209,-0.0605"/><path id="path810" d="m 157.6614,92.5033 h -0.2419"/><path id="path812" d="m 157.4195,92.5033 -0.121,0.0605"/><path id="path814" d="m 157.2985,92.5638 -0.0605,0.0605"/><path id="path816" d="m 157.238,92.6243 -0.0604,0.1209"/></g></g></g><g style="fill:#006464;fill-opacity:0;stroke:#006464;stroke-width:.1524;stroke-linecap:round;stroke-linejoin:round;stroke-opacity:1" id="g920" transform="translate(-104.0638,-71.801)"><g style="fill:#840000;fill-opacity:0;stroke:#840000;stroke-width:.1524;stroke-linecap:round;stroke-linejoin:round;stroke-opacity:1" id="g838"><circle id="circle826" cx="154.178" cy="78.74" r=".508"/><path style="fill:none;fill-opacity:0;stroke:#840000;stroke-width:.1524;stroke-linecap:round;stroke-linejoin:round;stroke-opacity:1" id="path828" d="M 156.21,77.47 V 75.692"/><path style="fill:none;fill-opacity:0;stroke:#840000;stroke-width:.1524;stroke-linecap:round;stroke-linejoin:round;stroke-opacity:1" id="path830" d="m 158.75,77.47 h -5.08"/><circle id="circle832" cx="158.242" cy="78.74" r=".508"/><path id="path834" d="m 153.67,78.74 h -2.54"/><path id="path836" d="m 158.75,78.74 h 2.54"/></g><g style="fill:#006464;fill-opacity:0;stroke:#006464;stroke-width:.1524;stroke-linecap:round;stroke-linejoin:round;stroke-opacity:1" id="g918"><text id="text840" x="156.21" y="81.915" font-size="1.693" lengthAdjust="spacingAndGlyphs" opacity="0" text-anchor="middle" textLength="3.997">SW3</text><g id="g916" class="stroked-text"><desc id="desc842">SW3</desc><path id="path844" d="m 154.5167,81.7991 0.1814,0.0604"/><path id="path846" d="m 154.6981,81.8595 h 0.3024"/><path id="path848" d="m 155.0005,81.8595 0.1209,-0.0604"/><path id="path850" d="m 155.1214,81.7991 0.0605,-0.0605"/><path id="path852" d="m 155.1819,81.7386 0.0605,-0.121"/><path id="path854" d="M 155.2424,81.6176 V 81.4967"/><path id="path856" d="m 155.2424,81.4967 -0.0605,-0.121"/><path id="path858" d="m 155.1819,81.3757 -0.0605,-0.0605"/><path id="path860" d="m 155.1214,81.3152 -0.1209,-0.0604"/><path id="path862" d="m 155.0005,81.2548 -0.2419,-0.0605"/><path id="path864" d="m 154.7586,81.1943 -0.121,-0.0605"/><path id="path866" d="m 154.6376,81.1338 -0.0605,-0.0605"/><path id="path868" d="m 154.5771,81.0733 -0.0604,-0.1209"/><path id="path870" d="m 154.5167,80.9524 v -0.121"/><path id="path872" d="m 154.5167,80.8314 0.0604,-0.1209"/><path id="path874" d="M 154.5771,80.7105 154.6376,80.65"/><path id="path876" d="m 154.6376,80.65 0.121,-0.0605"/><path id="path878" d="m 154.7586,80.5895 h 0.3023"/><path id="path880" d="m 155.0609,80.5895 0.1815,0.0605"/><path id="path882" d="m 155.6657,80.5895 0.3024,1.27"/><path id="path884" d="M 155.9681,81.8595 156.21,80.9524"/><path id="path886" d="m 156.21,80.9524 0.2419,0.9071"/><path id="path888" d="m 156.4519,81.8595 0.3024,-1.27"/><path id="path890" d="m 157.1171,80.5895 h 0.7862"/><path id="path892" d="m 157.9033,80.5895 -0.4234,0.4838"/><path id="path894" d="m 157.4799,81.0733 h 0.1815"/><path id="path896" d="m 157.6614,81.0733 0.1209,0.0605"/><path id="path898" d="m 157.7823,81.1338 0.0605,0.0605"/><path id="path900" d="m 157.8428,81.1943 0.0605,0.1209"/><path id="path902" d="m 157.9033,81.3152 v 0.3024"/><path id="path904" d="m 157.9033,81.6176 -0.0605,0.121"/><path id="path906" d="m 157.8428,81.7386 -0.0605,0.0605"/><path id="path908" d="m 157.7823,81.7991 -0.1209,0.0604"/><path id="path910" d="m 157.6614,81.8595 h -0.3629"/><path id="path912" d="m 157.2985,81.8595 -0.1209,-0.0604"/><path id="path914" d="m 157.1776,81.7991 -0.0605,-0.0605"/></g></g></g><g style="fill:#0f0f0f;fill-opacity:0;stroke:#0f0f0f;stroke-width:.1524;stroke-linecap:round;stroke-linejoin:round;stroke-opacity:1" id="g1034" transform="translate(-104.0638,-71.801)"><text id="text926" x="104.14" y="73.311" font-size="1.693" lengthAdjust="spacingAndGlyphs" opacity="0" text-anchor="start" textLength="5.388">ROW0</text><g id="g1032" class="stroked-text"><desc id="desc928">ROW0</desc><path id="path930" d="m 105.2682,73.1472 -0.4233,-0.6047"/><path id="path932" d="m 104.5425,73.1472 v -1.27"/><path id="path934" d="m 104.5425,71.8772 h 0.4838"/><path id="path936" d="m 105.0263,71.8772 0.121,0.0605"/><path id="path938" d="m 105.1473,71.9377 0.0605,0.0605"/><path id="path940" d="m 105.2078,71.9982 0.0604,0.1209"/><path id="path942" d="m 105.2682,72.1191 v 0.1815"/><path id="path944" d="m 105.2682,72.3006 -0.0604,0.1209"/><path id="path946" d="m 105.2078,72.4215 -0.0605,0.0605"/><path id="path948" d="m 105.1473,72.482 -0.121,0.0605"/><path id="path950" d="m 105.0263,72.5425 h -0.4838"/><path id="path952" d="m 106.0544,71.8772 h 0.2419"/><path id="path954" d="m 106.2963,71.8772 0.121,0.0605"/><path id="path956" d="m 106.4173,71.9377 0.1209,0.121"/><path id="path958" d="m 106.5382,72.0587 0.0605,0.2419"/><path id="path960" d="m 106.5987,72.3006 v 0.4233"/><path id="path962" d="m 106.5987,72.7239 -0.0605,0.2419"/><path id="path964" d="m 106.5382,72.9658 -0.1209,0.121"/><path id="path966" d="m 106.4173,73.0868 -0.121,0.0604"/><path id="path968" d="m 106.2963,73.1472 h -0.2419"/><path id="path970" d="m 106.0544,73.1472 -0.1209,-0.0604"/><path id="path972" d="m 105.9335,73.0868 -0.121,-0.121"/><path id="path974" d="m 105.8125,72.9658 -0.0604,-0.2419"/><path id="path976" d="M 105.7521,72.7239 V 72.3006"/><path id="path978" d="m 105.7521,72.3006 0.0604,-0.2419"/><path id="path980" d="m 105.8125,72.0587 0.121,-0.121"/><path id="path982" d="m 105.9335,71.9377 0.1209,-0.0605"/><path id="path984" d="m 107.0221,71.8772 0.3024,1.27"/><path id="path986" d="m 107.3245,73.1472 0.2419,-0.9071"/><path id="path988" d="m 107.5664,72.2401 0.2419,0.9071"/><path id="path990" d="m 107.8083,73.1472 0.3024,-1.27"/><path id="path992" d="m 108.8363,71.8772 h 0.121"/><path id="path994" d="m 108.9573,71.8772 0.1209,0.0605"/><path id="path996" d="m 109.0782,71.9377 0.0605,0.0605"/><path id="path998" d="m 109.1387,71.9982 0.0605,0.1209"/><path id="path1000" d="m 109.1992,72.1191 0.0605,0.2419"/><path id="path1002" d="m 109.2597,72.361 v 0.3024"/><path id="path1004" d="m 109.2597,72.6634 -0.0605,0.2419"/><path id="path1006" d="m 109.1992,72.9053 -0.0605,0.121"/><path id="path1008" d="m 109.1387,73.0263 -0.0605,0.0605"/><path id="path1010" d="m 109.0782,73.0868 -0.1209,0.0604"/><path id="path1012" d="m 108.9573,73.1472 h -0.121"/><path id="path1014" d="m 108.8363,73.1472 -0.1209,-0.0604"/><path id="path1016" d="m 108.7154,73.0868 -0.0605,-0.0605"/><path id="path1018" d="m 108.6549,73.0263 -0.0605,-0.121"/><path id="path1020" d="M 108.5944,72.9053 108.534,72.6634"/><path id="path1022" d="M 108.534,72.6634 V 72.361"/><path id="path1024" d="m 108.534,72.361 0.0604,-0.2419"/><path id="path1026" d="m 108.5944,72.1191 0.0605,-0.1209"/><path id="path1028" d="m 108.6549,71.9982 0.0605,-0.0605"/><path id="path1030" d="m 108.7154,71.9377 0.1209,-0.0605"/></g></g><g style="fill:#0f0f0f;fill-opacity:0;stroke:#0f0f0f;stroke-width:.1524;stroke-linecap:round;stroke-linejoin:round;stroke-opacity:1" id="g1116" transform="translate(-104.0638,-71.801)"><text id="text1038" x="104.14" y="84.741" font-size="1.693" lengthAdjust="spacingAndGlyphs" opacity="0" text-anchor="start" textLength="5.388">ROW1</text><g id="g1114" class="stroked-text"><desc id="desc1040">ROW1</desc><path id="path1042" d="m 105.2682,84.5772 -0.4233,-0.6047"/><path id="path1044" d="m 104.5425,84.5772 v -1.27"/><path id="path1046" d="m 104.5425,83.3072 h 0.4838"/><path id="path1048" d="m 105.0263,83.3072 0.121,0.0605"/><path id="path1050" d="m 105.1473,83.3677 0.0605,0.0605"/><path id="path1052" d="m 105.2078,83.4282 0.0604,0.1209"/><path id="path1054" d="m 105.2682,83.5491 v 0.1815"/><path id="path1056" d="m 105.2682,83.7306 -0.0604,0.1209"/><path id="path1058" d="m 105.2078,83.8515 -0.0605,0.0605"/><path id="path1060" d="m 105.1473,83.912 -0.121,0.0605"/><path id="path1062" d="m 105.0263,83.9725 h -0.4838"/><path id="path1064" d="m 106.0544,83.3072 h 0.2419"/><path id="path1066" d="m 106.2963,83.3072 0.121,0.0605"/><path id="path1068" d="m 106.4173,83.3677 0.1209,0.121"/><path id="path1070" d="m 106.5382,83.4887 0.0605,0.2419"/><path id="path1072" d="m 106.5987,83.7306 v 0.4233"/><path id="path1074" d="m 106.5987,84.1539 -0.0605,0.2419"/><path id="path1076" d="m 106.5382,84.3958 -0.1209,0.121"/><path id="path1078" d="m 106.4173,84.5168 -0.121,0.0604"/><path id="path1080" d="m 106.2963,84.5772 h -0.2419"/><path id="path1082" d="m 106.0544,84.5772 -0.1209,-0.0604"/><path id="path1084" d="m 105.9335,84.5168 -0.121,-0.121"/><path id="path1086" d="m 105.8125,84.3958 -0.0604,-0.2419"/><path id="path1088" d="M 105.7521,84.1539 V 83.7306"/><path id="path1090" d="m 105.7521,83.7306 0.0604,-0.2419"/><path id="path1092" d="m 105.8125,83.4887 0.121,-0.121"/><path id="path1094" d="m 105.9335,83.3677 0.1209,-0.0605"/><path id="path1096" d="m 107.0221,83.3072 0.3024,1.27"/><path id="path1098" d="m 107.3245,84.5772 0.2419,-0.9071"/><path id="path1100" d="m 107.5664,83.6701 0.2419,0.9071"/><path id="path1102" d="m 107.8083,84.5772 0.3024,-1.27"/><path id="path1104" d="M 109.2597,84.5772 H 108.534"/><path id="path1106" d="m 108.8968,84.5772 v -1.27"/><path id="path1108" d="m 108.8968,83.3072 -0.1209,0.1815"/><path id="path1110" d="m 108.7759,83.4887 -0.121,0.1209"/><path id="path1112" d="m 108.6549,83.6096 -0.1209,0.0605"/></g></g><g style="fill:#0f0f0f;fill-opacity:0;stroke:#0f0f0f;stroke-width:.1524;stroke-linecap:round;stroke-linejoin:round;stroke-opacity:1" id="g1214" transform="translate(-104.0638,-71.801)"><g id="g1122" transform="rotate(-90,163.4807,113.03)"><text id="text1120" x="163.481" y="113.03" font-size="1.693" lengthAdjust="spacingAndGlyphs" opacity="0" text-anchor="start" textLength="4.965">COL2</text></g><g id="g1212" class="stroked-text"><desc id="desc1124">COL2</desc><path id="path1126" d="m 163.1963,111.9017 0.0605,0.0604"/><path id="path1128" d="m 163.2568,111.9621 0.0604,0.1815"/><path id="path1130" d="m 163.3172,112.1436 v 0.1209"/><path id="path1132" d="m 163.3172,112.2645 -0.0604,0.1814"/><path id="path1134" d="m 163.2568,112.4459 -0.121,0.121"/><path id="path1136" d="m 163.1358,112.5669 -0.121,0.0605"/><path id="path1138" d="m 163.0148,112.6274 -0.2419,0.0604"/><path id="path1140" d="m 162.7729,112.6878 h -0.1814"/><path id="path1142" d="m 162.5915,112.6878 -0.2419,-0.0604"/><path id="path1144" d="m 162.3496,112.6274 -0.1209,-0.0605"/><path id="path1146" d="m 162.2287,112.5669 -0.121,-0.121"/><path id="path1148" d="m 162.1077,112.4459 -0.0605,-0.1814"/><path id="path1150" d="m 162.0472,112.2645 v -0.1209"/><path id="path1152" d="m 162.0472,112.1436 0.0605,-0.1815"/><path id="path1154" d="m 162.1077,111.9621 0.0605,-0.0604"/><path id="path1156" d="m 162.0472,111.1155 v -0.2419"/><path id="path1158" d="m 162.0472,110.8736 0.0605,-0.121"/><path id="path1160" d="m 162.1077,110.7526 0.121,-0.1209"/><path id="path1162" d="m 162.2287,110.6317 0.2419,-0.0605"/><path id="path1164" d="m 162.4706,110.5712 h 0.4233"/><path id="path1166" d="m 162.8939,110.5712 0.2419,0.0605"/><path id="path1168" d="m 163.1358,110.6317 0.121,0.1209"/><path id="path1170" d="m 163.2568,110.7526 0.0604,0.121"/><path id="path1172" d="m 163.3172,110.8736 v 0.2419"/><path id="path1174" d="m 163.3172,111.1155 -0.0604,0.1209"/><path id="path1176" d="m 163.2568,111.2364 -0.121,0.121"/><path id="path1178" d="m 163.1358,111.3574 -0.2419,0.0604"/><path id="path1180" d="m 162.8939,111.4178 h -0.4233"/><path id="path1182" d="m 162.4706,111.4178 -0.2419,-0.0604"/><path id="path1184" d="m 162.2287,111.3574 -0.121,-0.121"/><path id="path1186" d="m 162.1077,111.2364 -0.0605,-0.1209"/><path id="path1188" d="m 163.3172,109.4221 v 0.6048"/><path id="path1190" d="m 163.3172,110.0269 h -1.27"/><path id="path1192" d="m 162.1682,109.0592 -0.0605,-0.0604"/><path id="path1194" d="m 162.1077,108.9988 -0.0605,-0.121"/><path id="path1196" d="m 162.0472,108.8778 v -0.3024"/><path id="path1198" d="m 162.0472,108.5754 0.0605,-0.1209"/><path id="path1200" d="m 162.1077,108.4545 0.0605,-0.0605"/><path id="path1202" d="m 162.1682,108.394 0.1209,-0.0605"/><path id="path1204" d="m 162.2891,108.3335 h 0.121"/><path id="path1206" d="m 162.4101,108.3335 0.1814,0.0605"/><path id="path1208" d="m 162.5915,108.394 0.7257,0.7257"/><path id="path1210" d="m 163.3172,109.1197 v -0.7862"/></g></g><g style="fill:#0f0f0f;fill-opacity:0;stroke:#0f0f0f;stroke-width:.1524;stroke-linecap:round;stroke-linejoin:round;stroke-opacity:1" id="g1306" transform="translate(-104.0638,-71.801)"><text id="text1218" x="104.14" y="96.171" font-size="1.693" lengthAdjust="spacingAndGlyphs" opacity="0" text-anchor="start" textLength="5.388">ROW2</text><g id="g1304" class="stroked-text"><desc id="desc1220">ROW2</desc><path id="path1222" d="m 105.2682,96.0072 -0.4233,-0.6047"/><path id="path1224" d="m 104.5425,96.0072 v -1.27"/><path id="path1226" d="m 104.5425,94.7372 h 0.4838"/><path id="path1228" d="m 105.0263,94.7372 0.121,0.0605"/><path id="path1230" d="m 105.1473,94.7977 0.0605,0.0605"/><path id="path1232" d="m 105.2078,94.8582 0.0604,0.1209"/><path id="path1234" d="m 105.2682,94.9791 v 0.1815"/><path id="path1236" d="m 105.2682,95.1606 -0.0604,0.1209"/><path id="path1238" d="m 105.2078,95.2815 -0.0605,0.0605"/><path id="path1240" d="m 105.1473,95.342 -0.121,0.0605"/><path id="path1242" d="m 105.0263,95.4025 h -0.4838"/><path id="path1244" d="m 106.0544,94.7372 h 0.2419"/><path id="path1246" d="m 106.2963,94.7372 0.121,0.0605"/><path id="path1248" d="m 106.4173,94.7977 0.1209,0.121"/><path id="path1250" d="m 106.5382,94.9187 0.0605,0.2419"/><path id="path1252" d="m 106.5987,95.1606 v 0.4233"/><path id="path1254" d="m 106.5987,95.5839 -0.0605,0.2419"/><path id="path1256" d="m 106.5382,95.8258 -0.1209,0.121"/><path id="path1258" d="m 106.4173,95.9468 -0.121,0.0604"/><path id="path1260" d="m 106.2963,96.0072 h -0.2419"/><path id="path1262" d="m 106.0544,96.0072 -0.1209,-0.0604"/><path id="path1264" d="m 105.9335,95.9468 -0.121,-0.121"/><path id="path1266" d="m 105.8125,95.8258 -0.0604,-0.2419"/><path id="path1268" d="M 105.7521,95.5839 V 95.1606"/><path id="path1270" d="m 105.7521,95.1606 0.0604,-0.2419"/><path id="path1272" d="m 105.8125,94.9187 0.121,-0.121"/><path id="path1274" d="m 105.9335,94.7977 0.1209,-0.0605"/><path id="path1276" d="m 107.0221,94.7372 0.3024,1.27"/><path id="path1278" d="m 107.3245,96.0072 0.2419,-0.9071"/><path id="path1280" d="m 107.5664,95.1001 0.2419,0.9071"/><path id="path1282" d="m 107.8083,96.0072 0.3024,-1.27"/><path id="path1284" d="m 108.534,94.8582 0.0604,-0.0605"/><path id="path1286" d="m 108.5944,94.7977 0.121,-0.0605"/><path id="path1288" d="m 108.7154,94.7372 h 0.3024"/><path id="path1290" d="m 109.0178,94.7372 0.1209,0.0605"/><path id="path1292" d="m 109.1387,94.7977 0.0605,0.0605"/><path id="path1294" d="m 109.1992,94.8582 0.0605,0.1209"/><path id="path1296" d="m 109.2597,94.9791 v 0.121"/><path id="path1298" d="m 109.2597,95.1001 -0.0605,0.1814"/><path id="path1300" d="m 109.1992,95.2815 -0.7257,0.7257"/><path id="path1302" d="m 108.4735,96.0072 h 0.7862"/></g></g><g style="fill:#0f0f0f;fill-opacity:0;stroke:#0f0f0f;stroke-width:.1524;stroke-linecap:round;stroke-linejoin:round;stroke-opacity:1" id="g1424" transform="translate(-104.0638,-71.801)"><g id="g1312" transform="rotate(-90,127.9207,113.03)"><text id="text1310" x="127.921" y="113.03" font-size="1.693" lengthAdjust="spacingAndGlyphs" opacity="0" text-anchor="start" textLength="4.965">COL0</text></g><g id="g1422" class="stroked-text"><desc id="desc1314">COL0</desc><path id="path1316" d="m 127.6363,111.9017 0.0605,0.0604"/><path id="path1318" d="m 127.6968,111.9621 0.0604,0.1815"/><path id="path1320" d="m 127.7572,112.1436 v 0.1209"/><path id="path1322" d="m 127.7572,112.2645 -0.0604,0.1814"/><path id="path1324" d="m 127.6968,112.4459 -0.121,0.121"/><path id="path1326" d="m 127.5758,112.5669 -0.121,0.0605"/><path id="path1328" d="m 127.4548,112.6274 -0.2419,0.0604"/><path id="path1330" d="m 127.2129,112.6878 h -0.1814"/><path id="path1332" d="m 127.0315,112.6878 -0.2419,-0.0604"/><path id="path1334" d="m 126.7896,112.6274 -0.1209,-0.0605"/><path id="path1336" d="m 126.6687,112.5669 -0.121,-0.121"/><path id="path1338" d="m 126.5477,112.4459 -0.0605,-0.1814"/><path id="path1340" d="m 126.4872,112.2645 v -0.1209"/><path id="path1342" d="m 126.4872,112.1436 0.0605,-0.1815"/><path id="path1344" d="m 126.5477,111.9621 0.0605,-0.0604"/><path id="path1346" d="m 126.4872,111.1155 v -0.2419"/><path id="path1348" d="m 126.4872,110.8736 0.0605,-0.121"/><path id="path1350" d="m 126.5477,110.7526 0.121,-0.1209"/><path id="path1352" d="m 126.6687,110.6317 0.2419,-0.0605"/><path id="path1354" d="m 126.9106,110.5712 h 0.4233"/><path id="path1356" d="m 127.3339,110.5712 0.2419,0.0605"/><path id="path1358" d="m 127.5758,110.6317 0.121,0.1209"/><path id="path1360" d="m 127.6968,110.7526 0.0604,0.121"/><path id="path1362" d="m 127.7572,110.8736 v 0.2419"/><path id="path1364" d="m 127.7572,111.1155 -0.0604,0.1209"/><path id="path1366" d="m 127.6968,111.2364 -0.121,0.121"/><path id="path1368" d="m 127.5758,111.3574 -0.2419,0.0604"/><path id="path1370" d="m 127.3339,111.4178 h -0.4233"/><path id="path1372" d="m 126.9106,111.4178 -0.2419,-0.0604"/><path id="path1374" d="m 126.6687,111.3574 -0.121,-0.121"/><path id="path1376" d="m 126.5477,111.2364 -0.0605,-0.1209"/><path id="path1378" d="m 127.7572,109.4221 v 0.6048"/><path id="path1380" d="m 127.7572,110.0269 h -1.27"/><path id="path1382" d="m 126.4872,108.7569 v -0.121"/><path id="path1384" d="m 126.4872,108.6359 0.0605,-0.1209"/><path id="path1386" d="m 126.5477,108.515 0.0605,-0.0605"/><path id="path1388" d="m 126.6082,108.4545 0.1209,-0.0605"/><path id="path1390" d="m 126.7291,108.394 0.2419,-0.0605"/><path id="path1392" d="m 126.971,108.3335 h 0.3024"/><path id="path1394" d="m 127.2734,108.3335 0.2419,0.0605"/><path id="path1396" d="m 127.5153,108.394 0.121,0.0605"/><path id="path1398" d="m 127.6363,108.4545 0.0605,0.0605"/><path id="path1400" d="m 127.6968,108.515 0.0604,0.1209"/><path id="path1402" d="m 127.7572,108.6359 v 0.121"/><path id="path1404" d="m 127.7572,108.7569 -0.0604,0.1209"/><path id="path1406" d="m 127.6968,108.8778 -0.0605,0.0605"/><path id="path1408" d="m 127.6363,108.9383 -0.121,0.0605"/><path id="path1410" d="m 127.5153,108.9988 -0.2419,0.0604"/><path id="path1412" d="M 127.2734,109.0592 H 126.971"/><path id="path1414" d="m 126.971,109.0592 -0.2419,-0.0604"/><path id="path1416" d="m 126.7291,108.9988 -0.1209,-0.0605"/><path id="path1418" d="m 126.6082,108.9383 -0.0605,-0.0605"/><path id="path1420" d="m 126.5477,108.8778 -0.0605,-0.1209"/></g></g><g style="fill:#0f0f0f;fill-opacity:0;stroke:#0f0f0f;stroke-width:.1524;stroke-linecap:round;stroke-linejoin:round;stroke-opacity:1" id="g1512" transform="translate(-104.0638,-71.801)"><g id="g1430" transform="rotate(-90,145.7007,113.03)"><text id="text1428" x="145.701" y="113.03" font-size="1.693" lengthAdjust="spacingAndGlyphs" opacity="0" text-anchor="start" textLength="4.965">COL1</text></g><g id="g1510" class="stroked-text"><desc id="desc1432">COL1</desc><path id="path1434" d="m 145.4163,111.9017 0.0605,0.0604"/><path id="path1436" d="m 145.4768,111.9621 0.0604,0.1815"/><path id="path1438" d="m 145.5372,112.1436 v 0.1209"/><path id="path1440" d="m 145.5372,112.2645 -0.0604,0.1814"/><path id="path1442" d="m 145.4768,112.4459 -0.121,0.121"/><path id="path1444" d="m 145.3558,112.5669 -0.121,0.0605"/><path id="path1446" d="m 145.2348,112.6274 -0.2419,0.0604"/><path id="path1448" d="m 144.9929,112.6878 h -0.1814"/><path id="path1450" d="m 144.8115,112.6878 -0.2419,-0.0604"/><path id="path1452" d="m 144.5696,112.6274 -0.1209,-0.0605"/><path id="path1454" d="m 144.4487,112.5669 -0.121,-0.121"/><path id="path1456" d="m 144.3277,112.4459 -0.0605,-0.1814"/><path id="path1458" d="m 144.2672,112.2645 v -0.1209"/><path id="path1460" d="m 144.2672,112.1436 0.0605,-0.1815"/><path id="path1462" d="m 144.3277,111.9621 0.0605,-0.0604"/><path id="path1464" d="m 144.2672,111.1155 v -0.2419"/><path id="path1466" d="m 144.2672,110.8736 0.0605,-0.121"/><path id="path1468" d="m 144.3277,110.7526 0.121,-0.1209"/><path id="path1470" d="m 144.4487,110.6317 0.2419,-0.0605"/><path id="path1472" d="m 144.6906,110.5712 h 0.4233"/><path id="path1474" d="m 145.1139,110.5712 0.2419,0.0605"/><path id="path1476" d="m 145.3558,110.6317 0.121,0.1209"/><path id="path1478" d="m 145.4768,110.7526 0.0604,0.121"/><path id="path1480" d="m 145.5372,110.8736 v 0.2419"/><path id="path1482" d="m 145.5372,111.1155 -0.0604,0.1209"/><path id="path1484" d="m 145.4768,111.2364 -0.121,0.121"/><path id="path1486" d="m 145.3558,111.3574 -0.2419,0.0604"/><path id="path1488" d="m 145.1139,111.4178 h -0.4233"/><path id="path1490" d="m 144.6906,111.4178 -0.2419,-0.0604"/><path id="path1492" d="m 144.4487,111.3574 -0.121,-0.121"/><path id="path1494" d="m 144.3277,111.2364 -0.0605,-0.1209"/><path id="path1496" d="m 145.5372,109.4221 v 0.6048"/><path id="path1498" d="m 145.5372,110.0269 h -1.27"/><path id="path1500" d="m 145.5372,108.3335 v 0.7257"/><path id="path1502" d="m 145.5372,108.6964 h -1.27"/><path id="path1504" d="m 144.2672,108.6964 0.1815,0.1209"/><path id="path1506" d="m 144.4487,108.8173 0.1209,0.121"/><path id="path1508" d="m 144.5696,108.9383 0.0605,0.1209"/></g></g><g style="fill:#009600;fill-opacity:0;stroke:#009600;stroke-width:.1524;stroke-linecap:round;stroke-linejoin:round;stroke-opacity:1" id="g1604" transform="translate(-104.0638,-71.801)"><path id="path1514" d="m 113.03,73.66 h 17.78"/><path id="path1516" d="m 125.73,78.74 h 2.54"/><path id="path1518" d="m 130.81,73.66 v 5.08"/><path id="path1520" d="m 143.51,78.74 h 2.54"/><path id="path1522" d="m 125.73,101.6 h 2.54"/><path id="path1524" d="M 163.83,78.74 V 90.17"/><path id="path1526" d="m 113.03,96.52 h 17.78"/><path id="path1528" d="m 125.73,90.17 h 2.54"/><path id="path1530" d="m 113.03,90.17 h 2.54"/><path id="path1532" d="m 113.03,96.52 v 5.08"/><path id="path1534" d="m 104.14,96.52 h 8.89"/><path id="path1536" d="m 113.03,101.6 h 2.54"/><path id="path1538" d="m 113.03,73.66 v 5.08"/><path id="path1540" d="m 113.03,78.74 h 2.54"/><path id="path1542" d="m 104.14,73.66 h 8.89"/><path id="path1544" d="m 104.14,85.09 h 8.89"/><path id="path1546" d="m 113.03,85.09 h 17.78"/><path id="path1548" d="M 128.27,78.74 V 90.17"/><path id="path1550" d="m 113.03,85.09 v 5.08"/><path id="path1552" d="m 146.05,101.6 v 11.43"/><path id="path1554" d="m 130.81,96.52 v 5.08"/><path id="path1556" d="m 130.81,101.6 h 2.54"/><path id="path1558" d="m 130.81,73.66 h 17.78"/><path id="path1560" d="m 130.81,85.09 h 17.78"/><path id="path1562" d="m 148.59,73.66 v 5.08"/><path id="path1564" d="m 130.81,78.74 h 2.54"/><path id="path1566" d="m 143.51,90.17 h 2.54"/><path id="path1568" d="m 130.81,90.17 h 2.54"/><path id="path1570" d="m 130.81,85.09 v 5.08"/><path id="path1572" d="m 130.81,96.52 h 17.78"/><path id="path1574" d="m 143.51,101.6 h 2.54"/><path id="path1576" d="m 128.27,101.6 v 11.43"/><path id="path1578" d="m 161.29,78.74 h 2.54"/><path id="path1580" d="m 148.59,96.52 v 5.08"/><path id="path1582" d="M 146.05,90.17 V 101.6"/><path id="path1584" d="m 148.59,101.6 h 2.54"/><path id="path1586" d="m 148.59,90.17 h 2.54"/><path id="path1588" d="M 163.83,90.17 V 101.6"/><path id="path1590" d="m 161.29,101.6 h 2.54"/><path id="path1592" d="m 161.29,90.17 h 2.54"/><path id="path1594" d="m 163.83,101.6 v 11.43"/><path id="path1596" d="M 146.05,78.74 V 90.17"/><path id="path1598" d="M 128.27,90.17 V 101.6"/><path id="path1600" d="m 148.59,85.09 v 5.08"/><path id="path1602" d="m 148.59,78.74 h 2.54"/></g><g style="fill:#009600;fill-opacity:1;stroke:#009600;stroke-width:.1524;stroke-linecap:round;stroke-linejoin:round;stroke-opacity:1" id="g1630" transform="translate(-104.0638,-71.801)"><circle id="circle1606" cx="128.27" cy="101.6" r=".457"/><circle id="circle1608" cx="146.05" cy="90.17" r=".457"/><circle id="circle1610" cx="130.81" cy="85.09" r=".457"/><circle id="circle1612" cx="146.05" cy="101.6" r=".457"/><circle id="circle1614" cx="163.83" cy="90.17" r=".457"/><circle id="circle1616" cx="163.83" cy="101.6" r=".457"/><circle id="circle1618" cx="130.81" cy="73.66" r=".457"/><circle id="circle1620" cx="128.27" cy="90.17" r=".457"/><circle id="circle1622" cx="130.81" cy="96.52" r=".457"/><circle id="circle1624" cx="113.03" cy="96.52" r=".457"/><circle id="circle1626" cx="113.03" cy="73.66" r=".457"/><circle id="circle1628" cx="113.03" cy="85.09" r=".457"/></g></svg>