<svg xmlns="http://www.w3.org/2000/svg" xmlns:svg="http://www.w3.org/2000/svg" id="svg1516" width="227.904" height="156.114" version="1.1" viewBox="0 0 60.3 41.305"><title id="title2">SVG Image created as keyboard-matrix-testboard-no-sw4.svg date 2023/12/18 09:58:32</title><desc id="desc4">Image generated by Eeschema-SVG</desc><g style="fill:#000;fill-opacity:0;stroke:#000;stroke-width:.1524;stroke-linecap:round;stroke-linejoin:round;stroke-opacity:1" id="g106" transform="translate(-102.7938,-75.611)"><g style="fill:#840000;fill-opacity:0;stroke:#840000;stroke-width:.1524;stroke-linecap:round;stroke-linejoin:round;stroke-opacity:1" id="g46"><circle id="circle34" cx="117.348" cy="105.41" r=".508"/><path style="fill:none;fill-opacity:0;stroke:#840000;stroke-width:.1524;stroke-linecap:round;stroke-linejoin:round;stroke-opacity:1" id="path36" d="m 119.38,104.14 v -1.778"/><path style="fill:none;fill-opacity:0;stroke:#840000;stroke-width:.1524;stroke-linecap:round;stroke-linejoin:round;stroke-opacity:1" id="path38" d="m 121.92,104.14 h -5.08"/><circle id="circle40" cx="121.412" cy="105.41" r=".508"/><path id="path42" d="M 116.84,105.41 H 114.3"/><path id="path44" d="m 121.92,105.41 h 2.54"/></g><g style="fill:#006464;fill-opacity:0;stroke:#006464;stroke-width:.1524;stroke-linecap:round;stroke-linejoin:round;stroke-opacity:1" id="g104"><text id="text48" x="119.38" y="108.585" font-size="1.693" lengthAdjust="spacingAndGlyphs" opacity="0" text-anchor="middle" textLength="3.997">SW7</text><g id="g102" class="stroked-text"><desc id="desc50">SW7</desc><path id="path52" d="m 117.6867,108.4691 0.1814,0.0604"/><path id="path54" d="m 117.8681,108.5295 h 0.3024"/><path id="path56" d="m 118.1705,108.5295 0.1209,-0.0604"/><path id="path58" d="m 118.2914,108.4691 0.0605,-0.0605"/><path id="path60" d="m 118.3519,108.4086 0.0605,-0.121"/><path id="path62" d="m 118.4124,108.2876 v -0.1209"/><path id="path64" d="m 118.4124,108.1667 -0.0605,-0.121"/><path id="path66" d="m 118.3519,108.0457 -0.0605,-0.0605"/><path id="path68" d="m 118.2914,107.9852 -0.1209,-0.0604"/><path id="path70" d="m 118.1705,107.9248 -0.2419,-0.0605"/><path id="path72" d="m 117.9286,107.8643 -0.121,-0.0605"/><path id="path74" d="m 117.8076,107.8038 -0.0605,-0.0605"/><path id="path76" d="m 117.7471,107.7433 -0.0604,-0.1209"/><path id="path78" d="m 117.6867,107.6224 v -0.121"/><path id="path80" d="m 117.6867,107.5014 0.0604,-0.1209"/><path id="path82" d="m 117.7471,107.3805 0.0605,-0.0605"/><path id="path84" d="m 117.8076,107.32 0.121,-0.0605"/><path id="path86" d="m 117.9286,107.2595 h 0.3023"/><path id="path88" d="m 118.2309,107.2595 0.1815,0.0605"/><path id="path90" d="m 118.8357,107.2595 0.3024,1.27"/><path id="path92" d="m 119.1381,108.5295 0.2419,-0.9071"/><path id="path94" d="m 119.38,107.6224 0.2419,0.9071"/><path id="path96" d="m 119.6219,108.5295 0.3024,-1.27"/><path id="path98" d="m 120.2871,107.2595 h 0.8466"/><path id="path100" d="m 121.1337,107.2595 -0.5442,1.27"/></g></g></g><g style="fill:#006464;fill-opacity:0;stroke:#006464;stroke-width:.1524;stroke-linecap:round;stroke-linejoin:round;stroke-opacity:1" id="g204" transform="translate(-102.7938,-75.611)"><g style="fill:#840000;fill-opacity:0;stroke:#840000;stroke-width:.1524;stroke-linecap:round;stroke-linejoin:round;stroke-opacity:1" id="g122"><circle id="circle110" cx="152.908" cy="82.55" r=".508"/><path style="fill:none;fill-opacity:0;stroke:#840000;stroke-width:.1524;stroke-linecap:round;stroke-linejoin:round;stroke-opacity:1" id="path112" d="M 154.94,81.28 V 79.502"/><path style="fill:none;fill-opacity:0;stroke:#840000;stroke-width:.1524;stroke-linecap:round;stroke-linejoin:round;stroke-opacity:1" id="path114" d="M 157.48,81.28 H 152.4"/><circle id="circle116" cx="156.972" cy="82.55" r=".508"/><path id="path118" d="m 152.4,82.55 h -2.54"/><path id="path120" d="m 157.48,82.55 h 2.54"/></g><g style="fill:#006464;fill-opacity:0;stroke:#006464;stroke-width:.1524;stroke-linecap:round;stroke-linejoin:round;stroke-opacity:1" id="g202"><text id="text124" x="154.94" y="85.725" font-size="1.693" lengthAdjust="spacingAndGlyphs" opacity="0" text-anchor="middle" textLength="3.997">SW3</text><g id="g200" class="stroked-text"><desc id="desc126">SW3</desc><path id="path128" d="m 153.2467,85.6091 0.1814,0.0604"/><path id="path130" d="m 153.4281,85.6695 h 0.3024"/><path id="path132" d="m 153.7305,85.6695 0.1209,-0.0604"/><path id="path134" d="m 153.8514,85.6091 0.0605,-0.0605"/><path id="path136" d="m 153.9119,85.5486 0.0605,-0.121"/><path id="path138" d="M 153.9724,85.4276 V 85.3067"/><path id="path140" d="m 153.9724,85.3067 -0.0605,-0.121"/><path id="path142" d="m 153.9119,85.1857 -0.0605,-0.0605"/><path id="path144" d="m 153.8514,85.1252 -0.1209,-0.0604"/><path id="path146" d="m 153.7305,85.0648 -0.2419,-0.0605"/><path id="path148" d="m 153.4886,85.0043 -0.121,-0.0605"/><path id="path150" d="m 153.3676,84.9438 -0.0605,-0.0605"/><path id="path152" d="m 153.3071,84.8833 -0.0604,-0.1209"/><path id="path154" d="m 153.2467,84.7624 v -0.121"/><path id="path156" d="m 153.2467,84.6414 0.0604,-0.1209"/><path id="path158" d="M 153.3071,84.5205 153.3676,84.46"/><path id="path160" d="m 153.3676,84.46 0.121,-0.0605"/><path id="path162" d="m 153.4886,84.3995 h 0.3023"/><path id="path164" d="m 153.7909,84.3995 0.1815,0.0605"/><path id="path166" d="m 154.3957,84.3995 0.3024,1.27"/><path id="path168" d="M 154.6981,85.6695 154.94,84.7624"/><path id="path170" d="m 154.94,84.7624 0.2419,0.9071"/><path id="path172" d="m 155.1819,85.6695 0.3024,-1.27"/><path id="path174" d="m 155.8471,84.3995 h 0.7862"/><path id="path176" d="m 156.6333,84.3995 -0.4234,0.4838"/><path id="path178" d="m 156.2099,84.8833 h 0.1815"/><path id="path180" d="m 156.3914,84.8833 0.1209,0.0605"/><path id="path182" d="m 156.5123,84.9438 0.0605,0.0605"/><path id="path184" d="m 156.5728,85.0043 0.0605,0.1209"/><path id="path186" d="m 156.6333,85.1252 v 0.3024"/><path id="path188" d="m 156.6333,85.4276 -0.0605,0.121"/><path id="path190" d="m 156.5728,85.5486 -0.0605,0.0605"/><path id="path192" d="m 156.5123,85.6091 -0.1209,0.0604"/><path id="path194" d="m 156.3914,85.6695 h -0.3629"/><path id="path196" d="m 156.0285,85.6695 -0.1209,-0.0604"/><path id="path198" d="m 155.9076,85.6091 -0.0605,-0.0605"/></g></g></g><g style="fill:#006464;fill-opacity:0;stroke:#006464;stroke-width:.1524;stroke-linecap:round;stroke-linejoin:round;stroke-opacity:1" id="g338" transform="translate(-102.7938,-75.611)"><g style="fill:#840000;fill-opacity:0;stroke:#840000;stroke-width:.1524;stroke-linecap:round;stroke-linejoin:round;stroke-opacity:1" id="g220"><circle id="circle208" cx="135.128" cy="105.41" r=".508"/><path style="fill:none;fill-opacity:0;stroke:#840000;stroke-width:.1524;stroke-linecap:round;stroke-linejoin:round;stroke-opacity:1" id="path210" d="m 137.16,104.14 v -1.778"/><path style="fill:none;fill-opacity:0;stroke:#840000;stroke-width:.1524;stroke-linecap:round;stroke-linejoin:round;stroke-opacity:1" id="path212" d="m 139.7,104.14 h -5.08"/><circle id="circle214" cx="139.192" cy="105.41" r=".508"/><path id="path216" d="m 134.62,105.41 h -2.54"/><path id="path218" d="m 139.7,105.41 h 2.54"/></g><g style="fill:#006464;fill-opacity:0;stroke:#006464;stroke-width:.1524;stroke-linecap:round;stroke-linejoin:round;stroke-opacity:1" id="g336"><text id="text222" x="137.16" y="108.585" font-size="1.693" lengthAdjust="spacingAndGlyphs" opacity="0" text-anchor="middle" textLength="3.997">SW8</text><g id="g334" class="stroked-text"><desc id="desc224">SW8</desc><path id="path226" d="m 135.4667,108.4691 0.1814,0.0604"/><path id="path228" d="m 135.6481,108.5295 h 0.3024"/><path id="path230" d="m 135.9505,108.5295 0.1209,-0.0604"/><path id="path232" d="m 136.0714,108.4691 0.0605,-0.0605"/><path id="path234" d="m 136.1319,108.4086 0.0605,-0.121"/><path id="path236" d="m 136.1924,108.2876 v -0.1209"/><path id="path238" d="m 136.1924,108.1667 -0.0605,-0.121"/><path id="path240" d="m 136.1319,108.0457 -0.0605,-0.0605"/><path id="path242" d="m 136.0714,107.9852 -0.1209,-0.0604"/><path id="path244" d="m 135.9505,107.9248 -0.2419,-0.0605"/><path id="path246" d="m 135.7086,107.8643 -0.121,-0.0605"/><path id="path248" d="m 135.5876,107.8038 -0.0605,-0.0605"/><path id="path250" d="m 135.5271,107.7433 -0.0604,-0.1209"/><path id="path252" d="m 135.4667,107.6224 v -0.121"/><path id="path254" d="m 135.4667,107.5014 0.0604,-0.1209"/><path id="path256" d="m 135.5271,107.3805 0.0605,-0.0605"/><path id="path258" d="m 135.5876,107.32 0.121,-0.0605"/><path id="path260" d="m 135.7086,107.2595 h 0.3023"/><path id="path262" d="m 136.0109,107.2595 0.1815,0.0605"/><path id="path264" d="m 136.6157,107.2595 0.3024,1.27"/><path id="path266" d="m 136.9181,108.5295 0.2419,-0.9071"/><path id="path268" d="m 137.16,107.6224 0.2419,0.9071"/><path id="path270" d="m 137.4019,108.5295 0.3024,-1.27"/><path id="path272" d="m 138.3695,107.8038 -0.121,-0.0605"/><path id="path274" d="m 138.2485,107.7433 -0.0605,-0.0604"/><path id="path276" d="m 138.188,107.6829 -0.0604,-0.121"/><path id="path278" d="m 138.1276,107.5619 v -0.0605"/><path id="path280" d="m 138.1276,107.5014 0.0604,-0.1209"/><path id="path282" d="m 138.188,107.3805 0.0605,-0.0605"/><path id="path284" d="m 138.2485,107.32 0.121,-0.0605"/><path id="path286" d="m 138.3695,107.2595 h 0.2419"/><path id="path288" d="m 138.6114,107.2595 0.1209,0.0605"/><path id="path290" d="m 138.7323,107.32 0.0605,0.0605"/><path id="path292" d="m 138.7928,107.3805 0.0605,0.1209"/><path id="path294" d="m 138.8533,107.5014 v 0.0605"/><path id="path296" d="m 138.8533,107.5619 -0.0605,0.121"/><path id="path298" d="m 138.7928,107.6829 -0.0605,0.0604"/><path id="path300" d="m 138.7323,107.7433 -0.1209,0.0605"/><path id="path302" d="m 138.6114,107.8038 h -0.2419"/><path id="path304" d="m 138.3695,107.8038 -0.121,0.0605"/><path id="path306" d="m 138.2485,107.8643 -0.0605,0.0605"/><path id="path308" d="m 138.188,107.9248 -0.0604,0.1209"/><path id="path310" d="m 138.1276,108.0457 v 0.2419"/><path id="path312" d="m 138.1276,108.2876 0.0604,0.121"/><path id="path314" d="m 138.188,108.4086 0.0605,0.0605"/><path id="path316" d="m 138.2485,108.4691 0.121,0.0604"/><path id="path318" d="m 138.3695,108.5295 h 0.2419"/><path id="path320" d="m 138.6114,108.5295 0.1209,-0.0604"/><path id="path322" d="m 138.7323,108.4691 0.0605,-0.0605"/><path id="path324" d="m 138.7928,108.4086 0.0605,-0.121"/><path id="path326" d="m 138.8533,108.2876 v -0.2419"/><path id="path328" d="m 138.8533,108.0457 -0.0605,-0.1209"/><path id="path330" d="m 138.7928,107.9248 -0.0605,-0.0605"/><path id="path332" d="m 138.7323,107.8643 -0.1209,-0.0605"/></g></g></g><g style="fill:#006464;fill-opacity:0;stroke:#006464;stroke-width:.1524;stroke-linecap:round;stroke-linejoin:round;stroke-opacity:1" id="g420" transform="translate(-102.7938,-75.611)"><g style="fill:#840000;fill-opacity:0;stroke:#840000;stroke-width:.1524;stroke-linecap:round;stroke-linejoin:round;stroke-opacity:1" id="g354"><circle id="circle342" cx="117.348" cy="82.55" r=".508"/><path style="fill:none;fill-opacity:0;stroke:#840000;stroke-width:.1524;stroke-linecap:round;stroke-linejoin:round;stroke-opacity:1" id="path344" d="M 119.38,81.28 V 79.502"/><path style="fill:none;fill-opacity:0;stroke:#840000;stroke-width:.1524;stroke-linecap:round;stroke-linejoin:round;stroke-opacity:1" id="path346" d="m 121.92,81.28 h -5.08"/><circle id="circle348" cx="121.412" cy="82.55" r=".508"/><path id="path350" d="M 116.84,82.55 H 114.3"/><path id="path352" d="m 121.92,82.55 h 2.54"/></g><g style="fill:#006464;fill-opacity:0;stroke:#006464;stroke-width:.1524;stroke-linecap:round;stroke-linejoin:round;stroke-opacity:1" id="g418"><text id="text356" x="119.38" y="85.725" font-size="1.693" lengthAdjust="spacingAndGlyphs" opacity="0" text-anchor="middle" textLength="3.997">SW1</text><g id="g416" class="stroked-text"><desc id="desc358">SW1</desc><path id="path360" d="m 117.6867,85.6091 0.1814,0.0604"/><path id="path362" d="m 117.8681,85.6695 h 0.3024"/><path id="path364" d="m 118.1705,85.6695 0.1209,-0.0604"/><path id="path366" d="m 118.2914,85.6091 0.0605,-0.0605"/><path id="path368" d="m 118.3519,85.5486 0.0605,-0.121"/><path id="path370" d="M 118.4124,85.4276 V 85.3067"/><path id="path372" d="m 118.4124,85.3067 -0.0605,-0.121"/><path id="path374" d="m 118.3519,85.1857 -0.0605,-0.0605"/><path id="path376" d="m 118.2914,85.1252 -0.1209,-0.0604"/><path id="path378" d="m 118.1705,85.0648 -0.2419,-0.0605"/><path id="path380" d="m 117.9286,85.0043 -0.121,-0.0605"/><path id="path382" d="m 117.8076,84.9438 -0.0605,-0.0605"/><path id="path384" d="m 117.7471,84.8833 -0.0604,-0.1209"/><path id="path386" d="m 117.6867,84.7624 v -0.121"/><path id="path388" d="m 117.6867,84.6414 0.0604,-0.1209"/><path id="path390" d="M 117.7471,84.5205 117.8076,84.46"/><path id="path392" d="m 117.8076,84.46 0.121,-0.0605"/><path id="path394" d="m 117.9286,84.3995 h 0.3023"/><path id="path396" d="m 118.2309,84.3995 0.1815,0.0605"/><path id="path398" d="m 118.8357,84.3995 0.3024,1.27"/><path id="path400" d="M 119.1381,85.6695 119.38,84.7624"/><path id="path402" d="m 119.38,84.7624 0.2419,0.9071"/><path id="path404" d="m 119.6219,85.6695 0.3024,-1.27"/><path id="path406" d="m 121.0733,85.6695 h -0.7257"/><path id="path408" d="m 120.7104,85.6695 v -1.27"/><path id="path410" d="m 120.7104,84.3995 -0.1209,0.1815"/><path id="path412" d="m 120.5895,84.581 -0.121,0.1209"/><path id="path414" d="m 120.4685,84.7019 -0.1209,0.0605"/></g></g></g><g style="fill:#006464;fill-opacity:0;stroke:#006464;stroke-width:.1524;stroke-linecap:round;stroke-linejoin:round;stroke-opacity:1" id="g534" transform="translate(-102.7938,-75.611)"><g style="fill:#840000;fill-opacity:0;stroke:#840000;stroke-width:.1524;stroke-linecap:round;stroke-linejoin:round;stroke-opacity:1" id="g436"><circle id="circle424" cx="152.908" cy="93.98" r=".508"/><path style="fill:none;fill-opacity:0;stroke:#840000;stroke-width:.1524;stroke-linecap:round;stroke-linejoin:round;stroke-opacity:1" id="path426" d="M 154.94,92.71 V 90.932"/><path style="fill:none;fill-opacity:0;stroke:#840000;stroke-width:.1524;stroke-linecap:round;stroke-linejoin:round;stroke-opacity:1" id="path428" d="M 157.48,92.71 H 152.4"/><circle id="circle430" cx="156.972" cy="93.98" r=".508"/><path id="path432" d="m 152.4,93.98 h -2.54"/><path id="path434" d="m 157.48,93.98 h 2.54"/></g><g style="fill:#006464;fill-opacity:0;stroke:#006464;stroke-width:.1524;stroke-linecap:round;stroke-linejoin:round;stroke-opacity:1" id="g532"><text id="text438" x="154.94" y="97.155" font-size="1.693" lengthAdjust="spacingAndGlyphs" opacity="0" text-anchor="middle" textLength="3.997">SW6</text><g id="g530" class="stroked-text"><desc id="desc440">SW6</desc><path id="path442" d="m 153.2467,97.0391 0.1814,0.0604"/><path id="path444" d="m 153.4281,97.0995 h 0.3024"/><path id="path446" d="m 153.7305,97.0995 0.1209,-0.0604"/><path id="path448" d="m 153.8514,97.0391 0.0605,-0.0605"/><path id="path450" d="m 153.9119,96.9786 0.0605,-0.121"/><path id="path452" d="M 153.9724,96.8576 V 96.7367"/><path id="path454" d="m 153.9724,96.7367 -0.0605,-0.121"/><path id="path456" d="m 153.9119,96.6157 -0.0605,-0.0605"/><path id="path458" d="m 153.8514,96.5552 -0.1209,-0.0604"/><path id="path460" d="m 153.7305,96.4948 -0.2419,-0.0605"/><path id="path462" d="m 153.4886,96.4343 -0.121,-0.0605"/><path id="path464" d="m 153.3676,96.3738 -0.0605,-0.0605"/><path id="path466" d="m 153.3071,96.3133 -0.0604,-0.1209"/><path id="path468" d="m 153.2467,96.1924 v -0.121"/><path id="path470" d="m 153.2467,96.0714 0.0604,-0.1209"/><path id="path472" d="M 153.3071,95.9505 153.3676,95.89"/><path id="path474" d="m 153.3676,95.89 0.121,-0.0605"/><path id="path476" d="m 153.4886,95.8295 h 0.3023"/><path id="path478" d="m 153.7909,95.8295 0.1815,0.0605"/><path id="path480" d="m 154.3957,95.8295 0.3024,1.27"/><path id="path482" d="M 154.6981,97.0995 154.94,96.1924"/><path id="path484" d="m 154.94,96.1924 0.2419,0.9071"/><path id="path486" d="m 155.1819,97.0995 0.3024,-1.27"/><path id="path488" d="m 156.5123,95.8295 h -0.2419"/><path id="path490" d="M 156.2704,95.8295 156.1495,95.89"/><path id="path492" d="m 156.1495,95.89 -0.0605,0.0605"/><path id="path494" d="m 156.089,95.9505 -0.121,0.1814"/><path id="path496" d="m 155.968,96.1319 -0.0604,0.2419"/><path id="path498" d="m 155.9076,96.3738 v 0.4838"/><path id="path500" d="m 155.9076,96.8576 0.0604,0.121"/><path id="path502" d="m 155.968,96.9786 0.0605,0.0605"/><path id="path504" d="m 156.0285,97.0391 0.121,0.0604"/><path id="path506" d="m 156.1495,97.0995 h 0.2419"/><path id="path508" d="m 156.3914,97.0995 0.1209,-0.0604"/><path id="path510" d="m 156.5123,97.0391 0.0605,-0.0605"/><path id="path512" d="m 156.5728,96.9786 0.0605,-0.121"/><path id="path514" d="M 156.6333,96.8576 V 96.5552"/><path id="path516" d="m 156.6333,96.5552 -0.0605,-0.1209"/><path id="path518" d="m 156.5728,96.4343 -0.0605,-0.0605"/><path id="path520" d="m 156.5123,96.3738 -0.1209,-0.0605"/><path id="path522" d="m 156.3914,96.3133 h -0.2419"/><path id="path524" d="m 156.1495,96.3133 -0.121,0.0605"/><path id="path526" d="m 156.0285,96.3738 -0.0605,0.0605"/><path id="path528" d="m 155.968,96.4343 -0.0604,0.1209"/></g></g></g><g style="fill:#006464;fill-opacity:0;stroke:#006464;stroke-width:.1524;stroke-linecap:round;stroke-linejoin:round;stroke-opacity:1" id="g626" transform="translate(-102.7938,-75.611)"><g style="fill:#840000;fill-opacity:0;stroke:#840000;stroke-width:.1524;stroke-linecap:round;stroke-linejoin:round;stroke-opacity:1" id="g550"><circle id="circle538" cx="135.128" cy="82.55" r=".508"/><path style="fill:none;fill-opacity:0;stroke:#840000;stroke-width:.1524;stroke-linecap:round;stroke-linejoin:round;stroke-opacity:1" id="path540" d="M 137.16,81.28 V 79.502"/><path style="fill:none;fill-opacity:0;stroke:#840000;stroke-width:.1524;stroke-linecap:round;stroke-linejoin:round;stroke-opacity:1" id="path542" d="m 139.7,81.28 h -5.08"/><circle id="circle544" cx="139.192" cy="82.55" r=".508"/><path id="path546" d="m 134.62,82.55 h -2.54"/><path id="path548" d="m 139.7,82.55 h 2.54"/></g><g style="fill:#006464;fill-opacity:0;stroke:#006464;stroke-width:.1524;stroke-linecap:round;stroke-linejoin:round;stroke-opacity:1" id="g624"><text id="text552" x="137.16" y="85.725" font-size="1.693" lengthAdjust="spacingAndGlyphs" opacity="0" text-anchor="middle" textLength="3.997">SW2</text><g id="g622" class="stroked-text"><desc id="desc554">SW2</desc><path id="path556" d="m 135.4667,85.6091 0.1814,0.0604"/><path id="path558" d="m 135.6481,85.6695 h 0.3024"/><path id="path560" d="m 135.9505,85.6695 0.1209,-0.0604"/><path id="path562" d="m 136.0714,85.6091 0.0605,-0.0605"/><path id="path564" d="m 136.1319,85.5486 0.0605,-0.121"/><path id="path566" d="M 136.1924,85.4276 V 85.3067"/><path id="path568" d="m 136.1924,85.3067 -0.0605,-0.121"/><path id="path570" d="m 136.1319,85.1857 -0.0605,-0.0605"/><path id="path572" d="m 136.0714,85.1252 -0.1209,-0.0604"/><path id="path574" d="m 135.9505,85.0648 -0.2419,-0.0605"/><path id="path576" d="m 135.7086,85.0043 -0.121,-0.0605"/><path id="path578" d="m 135.5876,84.9438 -0.0605,-0.0605"/><path id="path580" d="m 135.5271,84.8833 -0.0604,-0.1209"/><path id="path582" d="m 135.4667,84.7624 v -0.121"/><path id="path584" d="m 135.4667,84.6414 0.0604,-0.1209"/><path id="path586" d="M 135.5271,84.5205 135.5876,84.46"/><path id="path588" d="m 135.5876,84.46 0.121,-0.0605"/><path id="path590" d="m 135.7086,84.3995 h 0.3023"/><path id="path592" d="m 136.0109,84.3995 0.1815,0.0605"/><path id="path594" d="m 136.6157,84.3995 0.3024,1.27"/><path id="path596" d="M 136.9181,85.6695 137.16,84.7624"/><path id="path598" d="m 137.16,84.7624 0.2419,0.9071"/><path id="path600" d="m 137.4019,85.6695 0.3024,-1.27"/><path id="path602" d="M 138.1276,84.5205 138.188,84.46"/><path id="path604" d="m 138.188,84.46 0.121,-0.0605"/><path id="path606" d="m 138.309,84.3995 h 0.3024"/><path id="path608" d="m 138.6114,84.3995 0.1209,0.0605"/><path id="path610" d="m 138.7323,84.46 0.0605,0.0605"/><path id="path612" d="m 138.7928,84.5205 0.0605,0.1209"/><path id="path614" d="m 138.8533,84.6414 v 0.121"/><path id="path616" d="m 138.8533,84.7624 -0.0605,0.1814"/><path id="path618" d="m 138.7928,84.9438 -0.7257,0.7257"/><path id="path620" d="m 138.0671,85.6695 h 0.7862"/></g></g></g><g style="fill:#006464;fill-opacity:0;stroke:#006464;stroke-width:.1524;stroke-linecap:round;stroke-linejoin:round;stroke-opacity:1" id="g704" transform="translate(-102.7938,-75.611)"><g style="fill:#840000;fill-opacity:0;stroke:#840000;stroke-width:.1524;stroke-linecap:round;stroke-linejoin:round;stroke-opacity:1" id="g642"><circle id="circle630" cx="117.348" cy="93.98" r=".508"/><path style="fill:none;fill-opacity:0;stroke:#840000;stroke-width:.1524;stroke-linecap:round;stroke-linejoin:round;stroke-opacity:1" id="path632" d="M 119.38,92.71 V 90.932"/><path style="fill:none;fill-opacity:0;stroke:#840000;stroke-width:.1524;stroke-linecap:round;stroke-linejoin:round;stroke-opacity:1" id="path634" d="m 121.92,92.71 h -5.08"/><circle id="circle636" cx="121.412" cy="93.98" r=".508"/><path id="path638" d="M 116.84,93.98 H 114.3"/><path id="path640" d="m 121.92,93.98 h 2.54"/></g><g style="fill:#006464;fill-opacity:0;stroke:#006464;stroke-width:.1524;stroke-linecap:round;stroke-linejoin:round;stroke-opacity:1" id="g702"><text id="text644" x="119.38" y="97.155" font-size="1.693" lengthAdjust="spacingAndGlyphs" opacity="0" text-anchor="middle" textLength="3.997">SW4</text><g id="g700" class="stroked-text"><desc id="desc646">SW4</desc><path id="path648" d="m 117.6867,97.0391 0.1814,0.0604"/><path id="path650" d="m 117.8681,97.0995 h 0.3024"/><path id="path652" d="m 118.1705,97.0995 0.1209,-0.0604"/><path id="path654" d="m 118.2914,97.0391 0.0605,-0.0605"/><path id="path656" d="m 118.3519,96.9786 0.0605,-0.121"/><path id="path658" d="M 118.4124,96.8576 V 96.7367"/><path id="path660" d="m 118.4124,96.7367 -0.0605,-0.121"/><path id="path662" d="m 118.3519,96.6157 -0.0605,-0.0605"/><path id="path664" d="m 118.2914,96.5552 -0.1209,-0.0604"/><path id="path666" d="m 118.1705,96.4948 -0.2419,-0.0605"/><path id="path668" d="m 117.9286,96.4343 -0.121,-0.0605"/><path id="path670" d="m 117.8076,96.3738 -0.0605,-0.0605"/><path id="path672" d="m 117.7471,96.3133 -0.0604,-0.1209"/><path id="path674" d="m 117.6867,96.1924 v -0.121"/><path id="path676" d="m 117.6867,96.0714 0.0604,-0.1209"/><path id="path678" d="M 117.7471,95.9505 117.8076,95.89"/><path id="path680" d="m 117.8076,95.89 0.121,-0.0605"/><path id="path682" d="m 117.9286,95.8295 h 0.3023"/><path id="path684" d="m 118.2309,95.8295 0.1815,0.0605"/><path id="path686" d="m 118.8357,95.8295 0.3024,1.27"/><path id="path688" d="M 119.1381,97.0995 119.38,96.1924"/><path id="path690" d="m 119.38,96.1924 0.2419,0.9071"/><path id="path692" d="m 119.6219,97.0995 0.3024,-1.27"/><path id="path694" d="m 120.9523,96.2529 v 0.8466"/><path id="path696" d="m 120.6499,95.7691 -0.3023,0.9071"/><path id="path698" d="m 120.3476,96.6762 h 0.7861"/></g></g></g><g style="fill:#006464;fill-opacity:0;stroke:#006464;stroke-width:.1524;stroke-linecap:round;stroke-linejoin:round;stroke-opacity:1" id="g818" transform="translate(-102.7938,-75.611)"><g style="fill:#840000;fill-opacity:0;stroke:#840000;stroke-width:.1524;stroke-linecap:round;stroke-linejoin:round;stroke-opacity:1" id="g720"><circle id="circle708" cx="152.908" cy="105.41" r=".508"/><path style="fill:none;fill-opacity:0;stroke:#840000;stroke-width:.1524;stroke-linecap:round;stroke-linejoin:round;stroke-opacity:1" id="path710" d="m 154.94,104.14 v -1.778"/><path style="fill:none;fill-opacity:0;stroke:#840000;stroke-width:.1524;stroke-linecap:round;stroke-linejoin:round;stroke-opacity:1" id="path712" d="M 157.48,104.14 H 152.4"/><circle id="circle714" cx="156.972" cy="105.41" r=".508"/><path id="path716" d="m 152.4,105.41 h -2.54"/><path id="path718" d="m 157.48,105.41 h 2.54"/></g><g style="fill:#006464;fill-opacity:0;stroke:#006464;stroke-width:.1524;stroke-linecap:round;stroke-linejoin:round;stroke-opacity:1" id="g816"><text id="text722" x="154.94" y="108.585" font-size="1.693" lengthAdjust="spacingAndGlyphs" opacity="0" text-anchor="middle" textLength="3.997">SW9</text><g id="g814" class="stroked-text"><desc id="desc724">SW9</desc><path id="path726" d="m 153.2467,108.4691 0.1814,0.0604"/><path id="path728" d="m 153.4281,108.5295 h 0.3024"/><path id="path730" d="m 153.7305,108.5295 0.1209,-0.0604"/><path id="path732" d="m 153.8514,108.4691 0.0605,-0.0605"/><path id="path734" d="m 153.9119,108.4086 0.0605,-0.121"/><path id="path736" d="m 153.9724,108.2876 v -0.1209"/><path id="path738" d="m 153.9724,108.1667 -0.0605,-0.121"/><path id="path740" d="m 153.9119,108.0457 -0.0605,-0.0605"/><path id="path742" d="m 153.8514,107.9852 -0.1209,-0.0604"/><path id="path744" d="m 153.7305,107.9248 -0.2419,-0.0605"/><path id="path746" d="m 153.4886,107.8643 -0.121,-0.0605"/><path id="path748" d="m 153.3676,107.8038 -0.0605,-0.0605"/><path id="path750" d="m 153.3071,107.7433 -0.0604,-0.1209"/><path id="path752" d="m 153.2467,107.6224 v -0.121"/><path id="path754" d="m 153.2467,107.5014 0.0604,-0.1209"/><path id="path756" d="m 153.3071,107.3805 0.0605,-0.0605"/><path id="path758" d="m 153.3676,107.32 0.121,-0.0605"/><path id="path760" d="m 153.4886,107.2595 h 0.3023"/><path id="path762" d="m 153.7909,107.2595 0.1815,0.0605"/><path id="path764" d="m 154.3957,107.2595 0.3024,1.27"/><path id="path766" d="m 154.6981,108.5295 0.2419,-0.9071"/><path id="path768" d="m 154.94,107.6224 0.2419,0.9071"/><path id="path770" d="m 155.1819,108.5295 0.3024,-1.27"/><path id="path772" d="m 156.0285,108.5295 h 0.2419"/><path id="path774" d="m 156.2704,108.5295 0.121,-0.0604"/><path id="path776" d="m 156.3914,108.4691 0.0604,-0.0605"/><path id="path778" d="m 156.4518,108.4086 0.121,-0.1815"/><path id="path780" d="m 156.5728,108.2271 0.0605,-0.2419"/><path id="path782" d="m 156.6333,107.9852 v -0.4838"/><path id="path784" d="m 156.6333,107.5014 -0.0605,-0.1209"/><path id="path786" d="M 156.5728,107.3805 156.5123,107.32"/><path id="path788" d="m 156.5123,107.32 -0.1209,-0.0605"/><path id="path790" d="m 156.3914,107.2595 h -0.2419"/><path id="path792" d="m 156.1495,107.2595 -0.121,0.0605"/><path id="path794" d="m 156.0285,107.32 -0.0605,0.0605"/><path id="path796" d="m 155.968,107.3805 -0.0604,0.1209"/><path id="path798" d="m 155.9076,107.5014 v 0.3024"/><path id="path800" d="m 155.9076,107.8038 0.0604,0.121"/><path id="path802" d="m 155.968,107.9248 0.0605,0.0604"/><path id="path804" d="m 156.0285,107.9852 0.121,0.0605"/><path id="path806" d="m 156.1495,108.0457 h 0.2419"/><path id="path808" d="m 156.3914,108.0457 0.1209,-0.0605"/><path id="path810" d="m 156.5123,107.9852 0.0605,-0.0604"/><path id="path812" d="m 156.5728,107.9248 0.0605,-0.121"/></g></g></g><g style="fill:#0f0f0f;fill-opacity:0;stroke:#0f0f0f;stroke-width:.1524;stroke-linecap:round;stroke-linejoin:round;stroke-opacity:1" id="g918" transform="translate(-102.7938,-75.611)"><g id="g826" transform="rotate(-90,162.2107,116.84)"><text id="text824" x="162.211" y="116.84" font-size="1.693" lengthAdjust="spacingAndGlyphs" opacity="0" text-anchor="start" textLength="4.965">COL2</text></g><g id="g916" class="stroked-text"><desc id="desc828">COL2</desc><path id="path830" d="m 161.9263,115.7117 0.0605,0.0604"/><path id="path832" d="m 161.9868,115.7721 0.0604,0.1815"/><path id="path834" d="m 162.0472,115.9536 v 0.1209"/><path id="path836" d="m 162.0472,116.0745 -0.0604,0.1814"/><path id="path838" d="m 161.9868,116.2559 -0.121,0.121"/><path id="path840" d="m 161.8658,116.3769 -0.121,0.0605"/><path id="path842" d="m 161.7448,116.4374 -0.2419,0.0604"/><path id="path844" d="m 161.5029,116.4978 h -0.1814"/><path id="path846" d="m 161.3215,116.4978 -0.2419,-0.0604"/><path id="path848" d="m 161.0796,116.4374 -0.1209,-0.0605"/><path id="path850" d="m 160.9587,116.3769 -0.121,-0.121"/><path id="path852" d="m 160.8377,116.2559 -0.0605,-0.1814"/><path id="path854" d="m 160.7772,116.0745 v -0.1209"/><path id="path856" d="m 160.7772,115.9536 0.0605,-0.1815"/><path id="path858" d="m 160.8377,115.7721 0.0605,-0.0604"/><path id="path860" d="m 160.7772,114.9255 v -0.2419"/><path id="path862" d="m 160.7772,114.6836 0.0605,-0.121"/><path id="path864" d="m 160.8377,114.5626 0.121,-0.1209"/><path id="path866" d="m 160.9587,114.4417 0.2419,-0.0605"/><path id="path868" d="m 161.2006,114.3812 h 0.4233"/><path id="path870" d="m 161.6239,114.3812 0.2419,0.0605"/><path id="path872" d="m 161.8658,114.4417 0.121,0.1209"/><path id="path874" d="m 161.9868,114.5626 0.0604,0.121"/><path id="path876" d="m 162.0472,114.6836 v 0.2419"/><path id="path878" d="m 162.0472,114.9255 -0.0604,0.1209"/><path id="path880" d="m 161.9868,115.0464 -0.121,0.121"/><path id="path882" d="m 161.8658,115.1674 -0.2419,0.0604"/><path id="path884" d="m 161.6239,115.2278 h -0.4233"/><path id="path886" d="m 161.2006,115.2278 -0.2419,-0.0604"/><path id="path888" d="m 160.9587,115.1674 -0.121,-0.121"/><path id="path890" d="m 160.8377,115.0464 -0.0605,-0.1209"/><path id="path892" d="m 162.0472,113.2321 v 0.6048"/><path id="path894" d="m 162.0472,113.8369 h -1.27"/><path id="path896" d="m 160.8982,112.8692 -0.0605,-0.0604"/><path id="path898" d="m 160.8377,112.8088 -0.0605,-0.121"/><path id="path900" d="m 160.7772,112.6878 v -0.3024"/><path id="path902" d="m 160.7772,112.3854 0.0605,-0.1209"/><path id="path904" d="m 160.8377,112.2645 0.0605,-0.0605"/><path id="path906" d="m 160.8982,112.204 0.1209,-0.0605"/><path id="path908" d="m 161.0191,112.1435 h 0.121"/><path id="path910" d="m 161.1401,112.1435 0.1814,0.0605"/><path id="path912" d="m 161.3215,112.204 0.7257,0.7257"/><path id="path914" d="m 162.0472,112.9297 v -0.7862"/></g></g><g style="fill:#0f0f0f;fill-opacity:0;stroke:#0f0f0f;stroke-width:.1524;stroke-linecap:round;stroke-linejoin:round;stroke-opacity:1" id="g1036" transform="translate(-102.7938,-75.611)"><g id="g924" transform="rotate(-90,126.6507,116.84)"><text id="text922" x="126.651" y="116.84" font-size="1.693" lengthAdjust="spacingAndGlyphs" opacity="0" text-anchor="start" textLength="4.965">COL0</text></g><g id="g1034" class="stroked-text"><desc id="desc926">COL0</desc><path id="path928" d="m 126.3663,115.7117 0.0605,0.0604"/><path id="path930" d="m 126.4268,115.7721 0.0604,0.1815"/><path id="path932" d="m 126.4872,115.9536 v 0.1209"/><path id="path934" d="m 126.4872,116.0745 -0.0604,0.1814"/><path id="path936" d="m 126.4268,116.2559 -0.121,0.121"/><path id="path938" d="m 126.3058,116.3769 -0.121,0.0605"/><path id="path940" d="m 126.1848,116.4374 -0.2419,0.0604"/><path id="path942" d="m 125.9429,116.4978 h -0.1814"/><path id="path944" d="m 125.7615,116.4978 -0.2419,-0.0604"/><path id="path946" d="m 125.5196,116.4374 -0.1209,-0.0605"/><path id="path948" d="m 125.3987,116.3769 -0.121,-0.121"/><path id="path950" d="m 125.2777,116.2559 -0.0605,-0.1814"/><path id="path952" d="m 125.2172,116.0745 v -0.1209"/><path id="path954" d="m 125.2172,115.9536 0.0605,-0.1815"/><path id="path956" d="m 125.2777,115.7721 0.0605,-0.0604"/><path id="path958" d="m 125.2172,114.9255 v -0.2419"/><path id="path960" d="m 125.2172,114.6836 0.0605,-0.121"/><path id="path962" d="m 125.2777,114.5626 0.121,-0.1209"/><path id="path964" d="m 125.3987,114.4417 0.2419,-0.0605"/><path id="path966" d="m 125.6406,114.3812 h 0.4233"/><path id="path968" d="m 126.0639,114.3812 0.2419,0.0605"/><path id="path970" d="m 126.3058,114.4417 0.121,0.1209"/><path id="path972" d="m 126.4268,114.5626 0.0604,0.121"/><path id="path974" d="m 126.4872,114.6836 v 0.2419"/><path id="path976" d="m 126.4872,114.9255 -0.0604,0.1209"/><path id="path978" d="m 126.4268,115.0464 -0.121,0.121"/><path id="path980" d="m 126.3058,115.1674 -0.2419,0.0604"/><path id="path982" d="m 126.0639,115.2278 h -0.4233"/><path id="path984" d="m 125.6406,115.2278 -0.2419,-0.0604"/><path id="path986" d="m 125.3987,115.1674 -0.121,-0.121"/><path id="path988" d="m 125.2777,115.0464 -0.0605,-0.1209"/><path id="path990" d="m 126.4872,113.2321 v 0.6048"/><path id="path992" d="m 126.4872,113.8369 h -1.27"/><path id="path994" d="m 125.2172,112.5669 v -0.121"/><path id="path996" d="m 125.2172,112.4459 0.0605,-0.1209"/><path id="path998" d="m 125.2777,112.325 0.0605,-0.0605"/><path id="path1000" d="m 125.3382,112.2645 0.1209,-0.0605"/><path id="path1002" d="m 125.4591,112.204 0.2419,-0.0605"/><path id="path1004" d="m 125.701,112.1435 h 0.3024"/><path id="path1006" d="m 126.0034,112.1435 0.2419,0.0605"/><path id="path1008" d="m 126.2453,112.204 0.121,0.0605"/><path id="path1010" d="m 126.3663,112.2645 0.0605,0.0605"/><path id="path1012" d="m 126.4268,112.325 0.0604,0.1209"/><path id="path1014" d="m 126.4872,112.4459 v 0.121"/><path id="path1016" d="m 126.4872,112.5669 -0.0604,0.1209"/><path id="path1018" d="m 126.4268,112.6878 -0.0605,0.0605"/><path id="path1020" d="m 126.3663,112.7483 -0.121,0.0605"/><path id="path1022" d="m 126.2453,112.8088 -0.2419,0.0604"/><path id="path1024" d="M 126.0034,112.8692 H 125.701"/><path id="path1026" d="m 125.701,112.8692 -0.2419,-0.0604"/><path id="path1028" d="m 125.4591,112.8088 -0.1209,-0.0605"/><path id="path1030" d="m 125.3382,112.7483 -0.0605,-0.0605"/><path id="path1032" d="m 125.2777,112.6878 -0.0605,-0.1209"/></g></g><g style="fill:#0f0f0f;fill-opacity:0;stroke:#0f0f0f;stroke-width:.1524;stroke-linecap:round;stroke-linejoin:round;stroke-opacity:1" id="g1124" transform="translate(-102.7938,-75.611)"><g id="g1042" transform="rotate(-90,144.4307,116.84)"><text id="text1040" x="144.431" y="116.84" font-size="1.693" lengthAdjust="spacingAndGlyphs" opacity="0" text-anchor="start" textLength="4.965">COL1</text></g><g id="g1122" class="stroked-text"><desc id="desc1044">COL1</desc><path id="path1046" d="m 144.1463,115.7117 0.0605,0.0604"/><path id="path1048" d="m 144.2068,115.7721 0.0604,0.1815"/><path id="path1050" d="m 144.2672,115.9536 v 0.1209"/><path id="path1052" d="m 144.2672,116.0745 -0.0604,0.1814"/><path id="path1054" d="m 144.2068,116.2559 -0.121,0.121"/><path id="path1056" d="m 144.0858,116.3769 -0.121,0.0605"/><path id="path1058" d="m 143.9648,116.4374 -0.2419,0.0604"/><path id="path1060" d="m 143.7229,116.4978 h -0.1814"/><path id="path1062" d="m 143.5415,116.4978 -0.2419,-0.0604"/><path id="path1064" d="m 143.2996,116.4374 -0.1209,-0.0605"/><path id="path1066" d="m 143.1787,116.3769 -0.121,-0.121"/><path id="path1068" d="m 143.0577,116.2559 -0.0605,-0.1814"/><path id="path1070" d="m 142.9972,116.0745 v -0.1209"/><path id="path1072" d="m 142.9972,115.9536 0.0605,-0.1815"/><path id="path1074" d="m 143.0577,115.7721 0.0605,-0.0604"/><path id="path1076" d="m 142.9972,114.9255 v -0.2419"/><path id="path1078" d="m 142.9972,114.6836 0.0605,-0.121"/><path id="path1080" d="m 143.0577,114.5626 0.121,-0.1209"/><path id="path1082" d="m 143.1787,114.4417 0.2419,-0.0605"/><path id="path1084" d="m 143.4206,114.3812 h 0.4233"/><path id="path1086" d="m 143.8439,114.3812 0.2419,0.0605"/><path id="path1088" d="m 144.0858,114.4417 0.121,0.1209"/><path id="path1090" d="m 144.2068,114.5626 0.0604,0.121"/><path id="path1092" d="m 144.2672,114.6836 v 0.2419"/><path id="path1094" d="m 144.2672,114.9255 -0.0604,0.1209"/><path id="path1096" d="m 144.2068,115.0464 -0.121,0.121"/><path id="path1098" d="m 144.0858,115.1674 -0.2419,0.0604"/><path id="path1100" d="m 143.8439,115.2278 h -0.4233"/><path id="path1102" d="m 143.4206,115.2278 -0.2419,-0.0604"/><path id="path1104" d="m 143.1787,115.1674 -0.121,-0.121"/><path id="path1106" d="m 143.0577,115.0464 -0.0605,-0.1209"/><path id="path1108" d="m 144.2672,113.2321 v 0.6048"/><path id="path1110" d="m 144.2672,113.8369 h -1.27"/><path id="path1112" d="m 144.2672,112.1435 v 0.7257"/><path id="path1114" d="m 144.2672,112.5064 h -1.27"/><path id="path1116" d="m 142.9972,112.5064 0.1815,0.1209"/><path id="path1118" d="m 143.1787,112.6273 0.1209,0.121"/><path id="path1120" d="m 143.2996,112.7483 0.0605,0.1209"/></g></g><g style="fill:#0f0f0f;fill-opacity:0;stroke:#0f0f0f;stroke-width:.1524;stroke-linecap:round;stroke-linejoin:round;stroke-opacity:1" id="g1236" transform="translate(-102.7938,-75.611)"><text id="text1128" x="102.87" y="77.121" font-size="1.693" lengthAdjust="spacingAndGlyphs" opacity="0" text-anchor="start" textLength="5.388">ROW0</text><g id="g1234" class="stroked-text"><desc id="desc1130">ROW0</desc><path id="path1132" d="m 103.9982,76.9572 -0.4233,-0.6047"/><path id="path1134" d="m 103.2725,76.9572 v -1.27"/><path id="path1136" d="m 103.2725,75.6872 h 0.4838"/><path id="path1138" d="m 103.7563,75.6872 0.121,0.0605"/><path id="path1140" d="m 103.8773,75.7477 0.0605,0.0605"/><path id="path1142" d="m 103.9378,75.8082 0.0604,0.1209"/><path id="path1144" d="m 103.9982,75.9291 v 0.1815"/><path id="path1146" d="m 103.9982,76.1106 -0.0604,0.1209"/><path id="path1148" d="m 103.9378,76.2315 -0.0605,0.0605"/><path id="path1150" d="m 103.8773,76.292 -0.121,0.0605"/><path id="path1152" d="m 103.7563,76.3525 h -0.4838"/><path id="path1154" d="m 104.7844,75.6872 h 0.2419"/><path id="path1156" d="m 105.0263,75.6872 0.121,0.0605"/><path id="path1158" d="m 105.1473,75.7477 0.1209,0.121"/><path id="path1160" d="m 105.2682,75.8687 0.0605,0.2419"/><path id="path1162" d="m 105.3287,76.1106 v 0.4233"/><path id="path1164" d="m 105.3287,76.5339 -0.0605,0.2419"/><path id="path1166" d="m 105.2682,76.7758 -0.1209,0.121"/><path id="path1168" d="m 105.1473,76.8968 -0.121,0.0604"/><path id="path1170" d="m 105.0263,76.9572 h -0.2419"/><path id="path1172" d="m 104.7844,76.9572 -0.1209,-0.0604"/><path id="path1174" d="m 104.6635,76.8968 -0.121,-0.121"/><path id="path1176" d="m 104.5425,76.7758 -0.0604,-0.2419"/><path id="path1178" d="M 104.4821,76.5339 V 76.1106"/><path id="path1180" d="m 104.4821,76.1106 0.0604,-0.2419"/><path id="path1182" d="m 104.5425,75.8687 0.121,-0.121"/><path id="path1184" d="m 104.6635,75.7477 0.1209,-0.0605"/><path id="path1186" d="m 105.7521,75.6872 0.3024,1.27"/><path id="path1188" d="m 106.0545,76.9572 0.2419,-0.9071"/><path id="path1190" d="m 106.2964,76.0501 0.2419,0.9071"/><path id="path1192" d="m 106.5383,76.9572 0.3024,-1.27"/><path id="path1194" d="m 107.5663,75.6872 h 0.121"/><path id="path1196" d="m 107.6873,75.6872 0.1209,0.0605"/><path id="path1198" d="m 107.8082,75.7477 0.0605,0.0605"/><path id="path1200" d="m 107.8687,75.8082 0.0605,0.1209"/><path id="path1202" d="m 107.9292,75.9291 0.0605,0.2419"/><path id="path1204" d="m 107.9897,76.171 v 0.3024"/><path id="path1206" d="m 107.9897,76.4734 -0.0605,0.2419"/><path id="path1208" d="m 107.9292,76.7153 -0.0605,0.121"/><path id="path1210" d="m 107.8687,76.8363 -0.0605,0.0605"/><path id="path1212" d="m 107.8082,76.8968 -0.1209,0.0604"/><path id="path1214" d="m 107.6873,76.9572 h -0.121"/><path id="path1216" d="m 107.5663,76.9572 -0.1209,-0.0604"/><path id="path1218" d="m 107.4454,76.8968 -0.0605,-0.0605"/><path id="path1220" d="m 107.3849,76.8363 -0.0605,-0.121"/><path id="path1222" d="M 107.3244,76.7153 107.264,76.4734"/><path id="path1224" d="M 107.264,76.4734 V 76.171"/><path id="path1226" d="m 107.264,76.171 0.0604,-0.2419"/><path id="path1228" d="m 107.3244,75.9291 0.0605,-0.1209"/><path id="path1230" d="m 107.3849,75.8082 0.0605,-0.0605"/><path id="path1232" d="m 107.4454,75.7477 0.1209,-0.0605"/></g></g><g style="fill:#0f0f0f;fill-opacity:0;stroke:#0f0f0f;stroke-width:.1524;stroke-linecap:round;stroke-linejoin:round;stroke-opacity:1" id="g1318" transform="translate(-102.7938,-75.611)"><text id="text1240" x="102.87" y="88.551" font-size="1.693" lengthAdjust="spacingAndGlyphs" opacity="0" text-anchor="start" textLength="5.388">ROW1</text><g id="g1316" class="stroked-text"><desc id="desc1242">ROW1</desc><path id="path1244" d="m 103.9982,88.3872 -0.4233,-0.6047"/><path id="path1246" d="m 103.2725,88.3872 v -1.27"/><path id="path1248" d="m 103.2725,87.1172 h 0.4838"/><path id="path1250" d="m 103.7563,87.1172 0.121,0.0605"/><path id="path1252" d="m 103.8773,87.1777 0.0605,0.0605"/><path id="path1254" d="m 103.9378,87.2382 0.0604,0.1209"/><path id="path1256" d="m 103.9982,87.3591 v 0.1815"/><path id="path1258" d="m 103.9982,87.5406 -0.0604,0.1209"/><path id="path1260" d="m 103.9378,87.6615 -0.0605,0.0605"/><path id="path1262" d="m 103.8773,87.722 -0.121,0.0605"/><path id="path1264" d="m 103.7563,87.7825 h -0.4838"/><path id="path1266" d="m 104.7844,87.1172 h 0.2419"/><path id="path1268" d="m 105.0263,87.1172 0.121,0.0605"/><path id="path1270" d="m 105.1473,87.1777 0.1209,0.121"/><path id="path1272" d="m 105.2682,87.2987 0.0605,0.2419"/><path id="path1274" d="m 105.3287,87.5406 v 0.4233"/><path id="path1276" d="m 105.3287,87.9639 -0.0605,0.2419"/><path id="path1278" d="m 105.2682,88.2058 -0.1209,0.121"/><path id="path1280" d="m 105.1473,88.3268 -0.121,0.0604"/><path id="path1282" d="m 105.0263,88.3872 h -0.2419"/><path id="path1284" d="m 104.7844,88.3872 -0.1209,-0.0604"/><path id="path1286" d="m 104.6635,88.3268 -0.121,-0.121"/><path id="path1288" d="m 104.5425,88.2058 -0.0604,-0.2419"/><path id="path1290" d="M 104.4821,87.9639 V 87.5406"/><path id="path1292" d="m 104.4821,87.5406 0.0604,-0.2419"/><path id="path1294" d="m 104.5425,87.2987 0.121,-0.121"/><path id="path1296" d="m 104.6635,87.1777 0.1209,-0.0605"/><path id="path1298" d="m 105.7521,87.1172 0.3024,1.27"/><path id="path1300" d="m 106.0545,88.3872 0.2419,-0.9071"/><path id="path1302" d="m 106.2964,87.4801 0.2419,0.9071"/><path id="path1304" d="m 106.5383,88.3872 0.3024,-1.27"/><path id="path1306" d="M 107.9897,88.3872 H 107.264"/><path id="path1308" d="m 107.6268,88.3872 v -1.27"/><path id="path1310" d="m 107.6268,87.1172 -0.1209,0.1815"/><path id="path1312" d="m 107.5059,87.2987 -0.121,0.1209"/><path id="path1314" d="m 107.3849,87.4196 -0.1209,0.0605"/></g></g><g style="fill:#0f0f0f;fill-opacity:0;stroke:#0f0f0f;stroke-width:.1524;stroke-linecap:round;stroke-linejoin:round;stroke-opacity:1" id="g1410" transform="translate(-102.7938,-75.611)"><text id="text1322" x="102.87" y="99.981" font-size="1.693" lengthAdjust="spacingAndGlyphs" opacity="0" text-anchor="start" textLength="5.388">ROW2</text><g id="g1408" class="stroked-text"><desc id="desc1324">ROW2</desc><path id="path1326" d="m 103.9982,99.8172 -0.4233,-0.6047"/><path id="path1328" d="m 103.2725,99.8172 v -1.27"/><path id="path1330" d="m 103.2725,98.5472 h 0.4838"/><path id="path1332" d="m 103.7563,98.5472 0.121,0.0605"/><path id="path1334" d="m 103.8773,98.6077 0.0605,0.0605"/><path id="path1336" d="m 103.9378,98.6682 0.0604,0.1209"/><path id="path1338" d="m 103.9982,98.7891 v 0.1815"/><path id="path1340" d="m 103.9982,98.9706 -0.0604,0.1209"/><path id="path1342" d="m 103.9378,99.0915 -0.0605,0.0605"/><path id="path1344" d="m 103.8773,99.152 -0.121,0.0605"/><path id="path1346" d="m 103.7563,99.2125 h -0.4838"/><path id="path1348" d="m 104.7844,98.5472 h 0.2419"/><path id="path1350" d="m 105.0263,98.5472 0.121,0.0605"/><path id="path1352" d="m 105.1473,98.6077 0.1209,0.121"/><path id="path1354" d="m 105.2682,98.7287 0.0605,0.2419"/><path id="path1356" d="m 105.3287,98.9706 v 0.4233"/><path id="path1358" d="m 105.3287,99.3939 -0.0605,0.2419"/><path id="path1360" d="m 105.2682,99.6358 -0.1209,0.121"/><path id="path1362" d="m 105.1473,99.7568 -0.121,0.0604"/><path id="path1364" d="m 105.0263,99.8172 h -0.2419"/><path id="path1366" d="m 104.7844,99.8172 -0.1209,-0.0604"/><path id="path1368" d="m 104.6635,99.7568 -0.121,-0.121"/><path id="path1370" d="m 104.5425,99.6358 -0.0604,-0.2419"/><path id="path1372" d="M 104.4821,99.3939 V 98.9706"/><path id="path1374" d="m 104.4821,98.9706 0.0604,-0.2419"/><path id="path1376" d="m 104.5425,98.7287 0.121,-0.121"/><path id="path1378" d="m 104.6635,98.6077 0.1209,-0.0605"/><path id="path1380" d="m 105.7521,98.5472 0.3024,1.27"/><path id="path1382" d="m 106.0545,99.8172 0.2419,-0.9071"/><path id="path1384" d="m 106.2964,98.9101 0.2419,0.9071"/><path id="path1386" d="m 106.5383,99.8172 0.3024,-1.27"/><path id="path1388" d="m 107.264,98.6682 0.0604,-0.0605"/><path id="path1390" d="m 107.3244,98.6077 0.121,-0.0605"/><path id="path1392" d="m 107.4454,98.5472 h 0.3024"/><path id="path1394" d="m 107.7478,98.5472 0.1209,0.0605"/><path id="path1396" d="m 107.8687,98.6077 0.0605,0.0605"/><path id="path1398" d="m 107.9292,98.6682 0.0605,0.1209"/><path id="path1400" d="m 107.9897,98.7891 v 0.121"/><path id="path1402" d="m 107.9897,98.9101 -0.0605,0.1814"/><path id="path1404" d="m 107.9292,99.0915 -0.7257,0.7257"/><path id="path1406" d="m 107.2035,99.8172 h 0.7862"/></g></g><g style="fill:#009600;fill-opacity:0;stroke:#009600;stroke-width:.1524;stroke-linecap:round;stroke-linejoin:round;stroke-opacity:1" id="g1492" transform="translate(-102.7938,-75.611)"><path id="path1412" d="m 147.32,88.9 v 5.08"/><path id="path1414" d="m 102.87,100.33 h 8.89"/><path id="path1416" d="m 111.76,77.47 h 17.78"/><path id="path1418" d="m 111.76,82.55 h 2.54"/><path id="path1420" d="m 129.54,77.47 v 5.08"/><path id="path1422" d="m 111.76,88.9 h 35.56"/><path id="path1424" d="m 102.87,77.47 h 8.89"/><path id="path1426" d="m 102.87,88.9 h 8.89"/><path id="path1428" d="m 111.76,77.47 v 5.08"/><path id="path1430" d="m 111.76,93.98 h 2.54"/><path id="path1432" d="M 124.46,82.55 H 127"/><path id="path1434" d="m 111.76,88.9 v 5.08"/><path id="path1436" d="m 111.76,100.33 v 5.08"/><path id="path1438" d="M 127,82.55 V 93.98"/><path id="path1440" d="M 124.46,93.98 H 127"/><path id="path1442" d="m 111.76,100.33 h 17.78"/><path id="path1444" d="m 111.76,105.41 h 2.54"/><path id="path1446" d="m 147.32,93.98 h 2.54"/><path id="path1448" d="m 160.02,105.41 h 2.54"/><path id="path1450" d="m 129.54,100.33 v 5.08"/><path id="path1452" d="m 129.54,100.33 h 17.78"/><path id="path1454" d="m 142.24,105.41 h 2.54"/><path id="path1456" d="m 127,93.98 v 11.43"/><path id="path1458" d="m 129.54,77.47 h 17.78"/><path id="path1460" d="m 147.32,77.47 v 5.08"/><path id="path1462" d="m 129.54,82.55 h 2.54"/><path id="path1464" d="m 142.24,82.55 h 2.54"/><path id="path1466" d="m 147.32,100.33 v 5.08"/><path id="path1468" d="m 162.56,93.98 v 11.43"/><path id="path1470" d="m 160.02,82.55 h 2.54"/><path id="path1472" d="m 160.02,93.98 h 2.54"/><path id="path1474" d="m 144.78,82.55 v 22.86"/><path id="path1476" d="m 147.32,105.41 h 2.54"/><path id="path1478" d="m 129.54,105.41 h 2.54"/><path id="path1480" d="m 127,105.41 v 11.43"/><path id="path1482" d="M 124.46,105.41 H 127"/><path id="path1484" d="m 144.78,105.41 v 11.43"/><path id="path1486" d="m 162.56,105.41 v 11.43"/><path id="path1488" d="m 147.32,82.55 h 2.54"/><path id="path1490" d="M 162.56,82.55 V 93.98"/></g><g style="fill:#009600;fill-opacity:1;stroke:#009600;stroke-width:.1524;stroke-linecap:round;stroke-linejoin:round;stroke-opacity:1" id="g1514" transform="translate(-102.7938,-75.611)"><circle id="circle1494" cx="162.56" cy="93.98" r=".457"/><circle id="circle1496" cx="162.56" cy="105.41" r=".457"/><circle id="circle1498" cx="129.54" cy="100.33" r=".457"/><circle id="circle1500" cx="144.78" cy="105.41" r=".457"/><circle id="circle1502" cx="127" cy="105.41" r=".457"/><circle id="circle1504" cx="111.76" cy="77.47" r=".457"/><circle id="circle1506" cx="129.54" cy="77.47" r=".457"/><circle id="circle1508" cx="111.76" cy="88.9" r=".457"/><circle id="circle1510" cx="127" cy="93.98" r=".457"/><circle id="circle1512" cx="111.76" cy="100.33" r=".457"/></g></svg>