<svg xmlns="http://www.w3.org/2000/svg" xmlns:xlink="http://www.w3.org/1999/xlink" width="1240" height="1490" fill="#000" fill-opacity="1" stroke="#000" stroke-dasharray="none" stroke-dashoffset="0" stroke-linecap="square" stroke-linejoin="miter" stroke-miterlimit="10" stroke-opacity="1" stroke-width="1" color-interpolation="auto" color-rendering="auto" font-family="'Dialog'" font-size="12" font-style="normal" font-weight="normal" image-rendering="auto" shape-rendering="auto" text-rendering="auto" viewBox="1040 30 1240 1490"><g><defs id="defs1"><clipPath id="clipPath1" clipPathUnits="userSpaceOnUse"><path d="M0 0 L2147483647 0 L2147483647 2147483647 L0 2147483647 L0 0 Z"/></clipPath><clipPath id="clipPath2" clipPathUnits="userSpaceOnUse"><path d="M0 0 L0 20 L20 20 L20 0 Z"/></clipPath><clipPath id="clipPath3" clipPathUnits="userSpaceOnUse"><path d="M0 0 L0 40 L40 40 L40 0 Z"/></clipPath><clipPath id="clipPath4" clipPathUnits="userSpaceOnUse"><path d="M0 0 L0 90 L170 90 L170 0 Z"/></clipPath><clipPath id="clipPath5" clipPathUnits="userSpaceOnUse"><path d="M0 0 L0 90 L190 90 L190 0 Z"/></clipPath><clipPath id="clipPath6" clipPathUnits="userSpaceOnUse"><path d="M0 0 L0 270 L340 270 L340 0 Z"/></clipPath><clipPath id="clipPath7" clipPathUnits="userSpaceOnUse"><path d="M0 0 L0 90 L220 90 L220 0 Z"/></clipPath><clipPath id="clipPath8" clipPathUnits="userSpaceOnUse"><path d="M0 0 L0 90 L290 90 L290 0 Z"/></clipPath><clipPath id="clipPath9" clipPathUnits="userSpaceOnUse"><path d="M0 0 L0 90 L160 90 L160 0 Z"/></clipPath><clipPath id="clipPath10" clipPathUnits="userSpaceOnUse"><path d="M0 0 L0 220 L930 220 L930 0 Z"/></clipPath><clipPath id="clipPath11" clipPathUnits="userSpaceOnUse"><path d="M0 0 L0 220 L850 220 L850 0 Z"/></clipPath><clipPath id="clipPath12" clipPathUnits="userSpaceOnUse"><path d="M0 0 L0 90 L200 90 L200 0 Z"/></clipPath><clipPath id="clipPath13" clipPathUnits="userSpaceOnUse"><path d="M0 0 L0 150 L630 150 L630 0 Z"/></clipPath><clipPath id="clipPath14" clipPathUnits="userSpaceOnUse"><path d="M0 0 L0 1380 L1200 1380 L1200 0 Z"/></clipPath><clipPath id="clipPath15" clipPathUnits="userSpaceOnUse"><path d="M0 0 L0 210 L420 210 L420 0 Z"/></clipPath><clipPath id="clipPath16" clipPathUnits="userSpaceOnUse"><path d="M0 0 L0 80 L110 80 L110 0 Z"/></clipPath><clipPath id="clipPath17" clipPathUnits="userSpaceOnUse"><path d="M0 0 L0 430 L420 430 L420 0 Z"/></clipPath><clipPath id="clipPath18" clipPathUnits="userSpaceOnUse"><path d="M0 0 L0 430 L510 430 L510 0 Z"/></clipPath><clipPath id="clipPath19" clipPathUnits="userSpaceOnUse"><path d="M0 0 L0 240 L80 240 L80 0 Z"/></clipPath><clipPath id="clipPath20" clipPathUnits="userSpaceOnUse"><path d="M0 0 L0 240 L210 240 L210 0 Z"/></clipPath><clipPath id="clipPath21" clipPathUnits="userSpaceOnUse"><path d="M0 0 L0 240 L270 240 L270 0 Z"/></clipPath><clipPath id="clipPath22" clipPathUnits="userSpaceOnUse"><path d="M0 0 L0 430 L150 430 L150 0 Z"/></clipPath><clipPath id="clipPath23" clipPathUnits="userSpaceOnUse"><path d="M0 0 L0 100 L320 100 L320 0 Z"/></clipPath><clipPath id="clipPath24" clipPathUnits="userSpaceOnUse"><path d="M0 0 L0 40 L280 40 L280 0 Z"/></clipPath><clipPath id="clipPath25" clipPathUnits="userSpaceOnUse"><path d="M0 0 L0 160 L70 160 L70 0 Z"/></clipPath><clipPath id="clipPath26" clipPathUnits="userSpaceOnUse"><path d="M0 0 L0 210 L220 210 L220 0 Z"/></clipPath><clipPath id="clipPath27" clipPathUnits="userSpaceOnUse"><path d="M0 0 L0 160 L110 160 L110 0 Z"/></clipPath><clipPath id="clipPath28" clipPathUnits="userSpaceOnUse"><path d="M0 0 L0 210 L80 210 L80 0 Z"/></clipPath><clipPath id="clipPath29" clipPathUnits="userSpaceOnUse"><path d="M0 0 L0 230 L420 230 L420 0 Z"/></clipPath><clipPath id="clipPath30" clipPathUnits="userSpaceOnUse"><path d="M0 0 L0 230 L200 230 L200 0 Z"/></clipPath><clipPath id="clipPath31" clipPathUnits="userSpaceOnUse"><path d="M0 0 L0 230 L150 230 L150 0 Z"/></clipPath><clipPath id="clipPath32" clipPathUnits="userSpaceOnUse"><path d="M0 0 L0 60 L170 60 L170 0 Z"/></clipPath><clipPath id="clipPath33" clipPathUnits="userSpaceOnUse"><path d="M0 0 L0 90 L600 90 L600 0 Z"/></clipPath><clipPath id="clipPath34" clipPathUnits="userSpaceOnUse"><path d="M0 0 L0 60 L260 60 L260 0 Z"/></clipPath><clipPath id="clipPath35" clipPathUnits="userSpaceOnUse"><path d="M0 0 L0 90 L620 90 L620 0 Z"/></clipPath><clipPath id="clipPath36" clipPathUnits="userSpaceOnUse"><path d="M0 0 L0 60 L210 60 L210 0 Z"/></clipPath><clipPath id="clipPath37" clipPathUnits="userSpaceOnUse"><path d="M0 0 L0 60 L230 60 L230 0 Z"/></clipPath><clipPath id="clipPath38" clipPathUnits="userSpaceOnUse"><path d="M0 0 L0 590 L120 590 L120 0 Z"/></clipPath><clipPath id="clipPath39" clipPathUnits="userSpaceOnUse"><path d="M0 0 L0 430 L60 430 L60 0 Z"/></clipPath><clipPath id="clipPath40" clipPathUnits="userSpaceOnUse"><path d="M0 0 L0 170 L290 170 L290 0 Z"/></clipPath><clipPath id="clipPath41" clipPathUnits="userSpaceOnUse"><path d="M0 0 L0 40 L320 40 L320 0 Z"/></clipPath><clipPath id="clipPath42" clipPathUnits="userSpaceOnUse"><path d="M0 0 L0 700 L230 700 L230 0 Z"/></clipPath><clipPath id="clipPath43" clipPathUnits="userSpaceOnUse"><path d="M0 0 L0 310 L130 310 L130 0 Z"/></clipPath><clipPath id="clipPath44" clipPathUnits="userSpaceOnUse"><path d="M0 0 L0 430 L140 430 L140 0 Z"/></clipPath><clipPath id="clipPath45" clipPathUnits="userSpaceOnUse"><path d="M0 0 L0 40 L220 40 L220 0 Z"/></clipPath><clipPath id="clipPath46" clipPathUnits="userSpaceOnUse"><path d="M0 0 L0 70 L100 70 L100 0 Z"/></clipPath><clipPath id="clipPath47" clipPathUnits="userSpaceOnUse"><path d="M0 0 L0 40 L300 40 L300 0 Z"/></clipPath><clipPath id="clipPath48" clipPathUnits="userSpaceOnUse"><path d="M0 0 L0 60 L100 60 L100 0 Z"/></clipPath></defs><g transform="translate(1440,150)"><circle cx="10.25" cy="10.25" r="8.75" stroke="none" clip-path="url(#clipPath2)"/><circle cx="10.25" cy="10.25" r="8.75" fill="none" clip-path="url(#clipPath2)"/></g><g fill="#FFF" fill-opacity="0" stroke="#FFF" stroke-opacity="0"><path stroke="none" d="M20.5 1.5 L39 20.5 L20.5 39 L1.5 20.5 Z" clip-path="url(#clipPath3)" transform="translate(1170,920)"/></g><g><path fill="none" d="M20.5 1.5 L39 20.5 L20.5 39 L1.5 20.5 Z" clip-path="url(#clipPath3)" transform="translate(1170,920)"/></g><g fill="#FFF" fill-opacity="0" stroke="#FFF" stroke-opacity="0"><path stroke="none" d="M20.5 1.5 L39 20.5 L20.5 39 L1.5 20.5 Z" clip-path="url(#clipPath3)" transform="translate(1120,730)"/></g><g><path fill="none" d="M20.5 1.5 L39 20.5 L20.5 39 L1.5 20.5 Z" clip-path="url(#clipPath3)" transform="translate(1120,730)"/></g><g transform="translate(1650,990)"><circle cx="10.25" cy="10.25" r="8.75" stroke="none" clip-path="url(#clipPath2)"/><circle cx="10.25" cy="10.25" r="8.75" fill="none" clip-path="url(#clipPath2)"/></g><g fill="#FFF" fill-opacity="0" stroke="#FFF" stroke-opacity="0" transform="translate(1450,720)"><rect width="168.5" height="88.5" x=".5" y=".5" stroke="none" clip-path="url(#clipPath4)" rx="18" ry="18"/></g><g transform="translate(1450,720)"><rect width="168.5" height="88.5" x=".5" y=".5" fill="none" clip-path="url(#clipPath4)" rx="18" ry="18"/><text x="68" y="17.975" stroke="none" clip-path="url(#clipPath4)" font-family="sans-serif" font-size="14" font-weight="bold" xml:space="preserve">error</text><path fill="none" d="M1 23.975 L169 23.975" clip-path="url(#clipPath4)"/><text x="5" y="38.95" stroke="none" clip-path="url(#clipPath4)" font-family="sans-serif" font-size="14" xml:space="preserve">entry / display(ERROR)</text></g><g fill="#FFF" fill-opacity="0" stroke="#FFF" stroke-opacity="0" transform="translate(1400,990)"><rect width="188.5" height="88.5" x=".5" y=".5" stroke="none" clip-path="url(#clipPath5)" rx="18" ry="18"/></g><g transform="translate(1400,990)"><rect width="188.5" height="88.5" x=".5" y=".5" fill="none" clip-path="url(#clipPath5)" rx="18" ry="18"/><text x="59" y="17.975" stroke="none" clip-path="url(#clipPath5)" font-family="sans-serif" font-size="14" font-weight="bold" xml:space="preserve">op_normal</text><path fill="none" d="M1 23.975 L189 23.975" clip-path="url(#clipPath5)"/><text x="5" y="38.95" stroke="none" clip-path="url(#clipPath5)" font-family="sans-serif" font-size="14" xml:space="preserve">entry / display(OPERAND_2)</text></g><g fill="#FFF" fill-opacity="0" stroke="#FFF" stroke-opacity="0" transform="translate(1400,880)"><rect width="188.5" height="88.5" x=".5" y=".5" stroke="none" clip-path="url(#clipPath5)" rx="18" ry="18"/></g><g transform="translate(1400,880)"><rect width="188.5" height="88.5" x=".5" y=".5" fill="none" clip-path="url(#clipPath5)" rx="18" ry="18"/><text x="56" y="17.975" stroke="none" clip-path="url(#clipPath5)" font-family="sans-serif" font-size="14" font-weight="bold" xml:space="preserve">op_chained</text><path fill="none" d="M1 23.975 L189 23.975" clip-path="url(#clipPath5)"/><text x="5" y="38.95" stroke="none" clip-path="url(#clipPath5)" font-family="sans-serif" font-size="14" xml:space="preserve">entry / display(OPERAND_1)</text></g><g fill="#FFF" fill-opacity="0" stroke="#FFF" stroke-opacity="0" transform="translate(1370,830)"><rect width="338.5" height="268.5" x=".5" y=".5" stroke="none" clip-path="url(#clipPath6)" rx="20" ry="20"/></g><g transform="translate(1370,830)"><rect width="338.5" height="268.5" x=".5" y=".5" fill="none" clip-path="url(#clipPath6)" rx="20" ry="20"/><text x="132" y="17.975" stroke="none" clip-path="url(#clipPath6)" font-family="sans-serif" font-size="14" font-weight="bold" xml:space="preserve">op_entered</text><path fill="none" d="M1 23.975 L339 23.975" clip-path="url(#clipPath6)"/></g><g fill="#FFF" fill-opacity="0" stroke="#FFF" stroke-opacity="0" transform="translate(1960,820)"><rect width="218.5" height="88.5" x=".5" y=".5" stroke="none" clip-path="url(#clipPath7)" rx="18" ry="18"/></g><g transform="translate(1960,820)"><rect width="218.5" height="88.5" x=".5" y=".5" fill="none" clip-path="url(#clipPath7)" rx="18" ry="18"/><text x="79" y="17.975" stroke="none" clip-path="url(#clipPath7)" font-family="sans-serif" font-size="14" font-weight="bold" xml:space="preserve">negated2</text><path fill="none" d="M1 23.975 L219 23.975" clip-path="url(#clipPath7)"/><text x="5" y="38.95" stroke="none" clip-path="url(#clipPath7)" font-family="sans-serif" font-size="14" xml:space="preserve">entry / negate(op2)</text><text x="5" y="54.925" stroke="none" clip-path="url(#clipPath7)" font-family="sans-serif" font-size="14" xml:space="preserve">OPER [&apos;-&apos;] / ;</text></g><g fill="#FFF" fill-opacity="0" stroke="#FFF" stroke-opacity="0" transform="translate(1900,1310)"><rect width="288.5" height="88.5" x=".5" y=".5" stroke="none" clip-path="url(#clipPath8)" rx="18" ry="18"/></g><g transform="translate(1900,1310)"><rect width="288.5" height="88.5" x=".5" y=".5" fill="none" clip-path="url(#clipPath8)" rx="18" ry="18"/><text x="128" y="17.975" stroke="none" clip-path="url(#clipPath8)" font-family="sans-serif" font-size="14" font-weight="bold" xml:space="preserve">frac2</text><path fill="none" d="M1 23.975 L289 23.975" clip-path="url(#clipPath8)"/><text x="5" y="38.95" stroke="none" clip-path="url(#clipPath8)" font-family="sans-serif" font-size="14" xml:space="preserve">DIGIT_0 / insert(op2)</text><text x="5" y="54.925" stroke="none" clip-path="url(#clipPath8)" font-family="sans-serif" font-size="14" xml:space="preserve">DIGIT_1_9 / insert(op2)</text><text x="5" y="70.9" stroke="none" clip-path="url(#clipPath8)" font-family="sans-serif" font-size="14" xml:space="preserve">POINT / ;</text></g><g fill="#FFF" fill-opacity="0" stroke="#FFF" stroke-opacity="0" transform="translate(1660,1310)"><rect width="188.5" height="88.5" x=".5" y=".5" stroke="none" clip-path="url(#clipPath5)" rx="18" ry="18"/></g><g transform="translate(1660,1310)"><rect width="188.5" height="88.5" x=".5" y=".5" fill="none" clip-path="url(#clipPath5)" rx="18" ry="18"/><text x="82" y="17.975" stroke="none" clip-path="url(#clipPath5)" font-family="sans-serif" font-size="14" font-weight="bold" xml:space="preserve">int2</text><path fill="none" d="M1 23.975 L189 23.975" clip-path="url(#clipPath5)"/><text x="5" y="38.95" stroke="none" clip-path="url(#clipPath5)" font-family="sans-serif" font-size="14" xml:space="preserve">DIGIT_0 / insert(op2)</text><text x="5" y="54.925" stroke="none" clip-path="url(#clipPath5)" font-family="sans-serif" font-size="14" xml:space="preserve">DIGIT_1_9 / insert(op2)</text></g><g fill="#FFF" fill-opacity="0" stroke="#FFF" stroke-opacity="0" transform="translate(1440,1310)"><rect width="158.5" height="88.5" x=".5" y=".5" stroke="none" clip-path="url(#clipPath9)" rx="18" ry="18"/></g><g transform="translate(1440,1310)"><rect width="158.5" height="88.5" x=".5" y=".5" fill="none" clip-path="url(#clipPath9)" rx="18" ry="18"/><text x="61" y="17.975" stroke="none" clip-path="url(#clipPath9)" font-family="sans-serif" font-size="14" font-weight="bold" xml:space="preserve">zero2</text><path fill="none" d="M1 23.975 L159 23.975" clip-path="url(#clipPath9)"/><text x="5" y="38.95" stroke="none" clip-path="url(#clipPath9)" font-family="sans-serif" font-size="14" xml:space="preserve">DIGIT_0 / ;</text></g><g fill="#FFF" fill-opacity="0" stroke="#FFF" stroke-opacity="0" transform="translate(1300,1260)"><rect width="928.5" height="218.5" x=".5" y=".5" stroke="none" clip-path="url(#clipPath10)" rx="20" ry="20"/></g><g transform="translate(1300,1260)"><rect width="928.5" height="218.5" x=".5" y=".5" fill="none" clip-path="url(#clipPath10)" rx="20" ry="20"/><text x="433" y="17.975" stroke="none" clip-path="url(#clipPath10)" font-family="sans-serif" font-size="14" font-weight="bold" xml:space="preserve">operand2</text><path fill="none" d="M1 23.975 L929 23.975" clip-path="url(#clipPath10)"/><text x="5" y="38.95" stroke="none" clip-path="url(#clipPath10)" font-family="sans-serif" font-size="14" xml:space="preserve">entry / display(OPERAND_2)</text></g><g fill="#FFF" fill-opacity="0" stroke="#FFF" stroke-opacity="0" transform="translate(2000,530)"><rect width="158.5" height="88.5" x=".5" y=".5" stroke="none" clip-path="url(#clipPath9)" rx="18" ry="18"/></g><g transform="translate(2000,530)"><rect width="158.5" height="88.5" x=".5" y=".5" fill="none" clip-path="url(#clipPath9)" rx="18" ry="18"/><text x="63" y="17.975" stroke="none" clip-path="url(#clipPath9)" font-family="sans-serif" font-size="14" font-weight="bold" xml:space="preserve">frac1</text><path fill="none" d="M1 23.975 L159 23.975" clip-path="url(#clipPath9)"/><text x="5" y="38.95" stroke="none" clip-path="url(#clipPath9)" font-family="sans-serif" font-size="14" xml:space="preserve">DIGIT_0 / insert(op1)</text><text x="5" y="54.925" stroke="none" clip-path="url(#clipPath9)" font-family="sans-serif" font-size="14" xml:space="preserve">DIGIT_1_9 / insert(op1)</text><text x="5" y="70.9" stroke="none" clip-path="url(#clipPath9)" font-family="sans-serif" font-size="14" xml:space="preserve">POINT / ;</text></g><g fill="#FFF" fill-opacity="0" stroke="#FFF" stroke-opacity="0" transform="translate(1790,530)"><rect width="158.5" height="88.5" x=".5" y=".5" stroke="none" clip-path="url(#clipPath9)" rx="18" ry="18"/></g><g transform="translate(1790,530)"><rect width="158.5" height="88.5" x=".5" y=".5" fill="none" clip-path="url(#clipPath9)" rx="18" ry="18"/><text x="67" y="17.975" stroke="none" clip-path="url(#clipPath9)" font-family="sans-serif" font-size="14" font-weight="bold" xml:space="preserve">int1</text><path fill="none" d="M1 23.975 L159 23.975" clip-path="url(#clipPath9)"/><text x="5" y="38.95" stroke="none" clip-path="url(#clipPath9)" font-family="sans-serif" font-size="14" xml:space="preserve">DIGIT_0 / insert(op1)</text><text x="5" y="54.925" stroke="none" clip-path="url(#clipPath9)" font-family="sans-serif" font-size="14" xml:space="preserve">DIGIT_1_9 / insert(op1)</text></g><g fill="#FFF" fill-opacity="0" stroke="#FFF" stroke-opacity="0" transform="translate(1500,530)"><rect width="158.5" height="88.5" x=".5" y=".5" stroke="none" clip-path="url(#clipPath9)" rx="18" ry="18"/></g><g transform="translate(1500,530)"><rect width="158.5" height="88.5" x=".5" y=".5" fill="none" clip-path="url(#clipPath9)" rx="18" ry="18"/><text x="61" y="17.975" stroke="none" clip-path="url(#clipPath9)" font-family="sans-serif" font-size="14" font-weight="bold" xml:space="preserve">zero1</text><path fill="none" d="M1 23.975 L159 23.975" clip-path="url(#clipPath9)"/><text x="5" y="38.95" stroke="none" clip-path="url(#clipPath9)" font-family="sans-serif" font-size="14" xml:space="preserve">DIGIT_0 / ;</text></g><g fill="#FFF" fill-opacity="0" stroke="#FFF" stroke-opacity="0" transform="translate(1360,480)"><rect width="848.5" height="218.5" x=".5" y=".5" stroke="none" clip-path="url(#clipPath11)" rx="20" ry="20"/></g><g transform="translate(1360,480)"><rect width="848.5" height="218.5" x=".5" y=".5" fill="none" clip-path="url(#clipPath11)" rx="20" ry="20"/><text x="393" y="17.975" stroke="none" clip-path="url(#clipPath11)" font-family="sans-serif" font-size="14" font-weight="bold" xml:space="preserve">operand1</text><path fill="none" d="M1 23.975 L849 23.975" clip-path="url(#clipPath11)"/><text x="5" y="38.95" stroke="none" clip-path="url(#clipPath11)" font-family="sans-serif" font-size="14" xml:space="preserve">entry / display(OPERAND_1)</text></g><g transform="translate(1430,250)"><circle cx="10.25" cy="10.25" r="8.75" stroke="none" clip-path="url(#clipPath2)"/><circle cx="10.25" cy="10.25" r="8.75" fill="none" clip-path="url(#clipPath2)"/></g><g fill="#FFF" fill-opacity="0" stroke="#FFF" stroke-opacity="0" transform="translate(1110,240)"><rect width="188.5" height="88.5" x=".5" y=".5" stroke="none" clip-path="url(#clipPath5)" rx="18" ry="18"/></g><g transform="translate(1110,240)"><rect width="188.5" height="88.5" x=".5" y=".5" fill="none" clip-path="url(#clipPath5)" rx="18" ry="18"/><text x="75" y="17.975" stroke="none" clip-path="url(#clipPath5)" font-family="sans-serif" font-size="14" font-weight="bold" xml:space="preserve">result</text><path fill="none" d="M1 23.975 L189 23.975" clip-path="url(#clipPath5)"/><text x="5" y="38.95" stroke="none" clip-path="url(#clipPath5)" font-family="sans-serif" font-size="14" xml:space="preserve">entry / display(RESULT)</text></g><g fill="#FFF" fill-opacity="0" stroke="#FFF" stroke-opacity="0" transform="translate(1510,240)"><rect width="198.5" height="88.5" x=".5" y=".5" stroke="none" clip-path="url(#clipPath12)" rx="18" ry="18"/></g><g transform="translate(1510,240)"><rect width="198.5" height="88.5" x=".5" y=".5" fill="none" clip-path="url(#clipPath12)" rx="18" ry="18"/><text x="81" y="17.975" stroke="none" clip-path="url(#clipPath12)" font-family="sans-serif" font-size="14" font-weight="bold" xml:space="preserve">begin</text><path fill="none" d="M1 23.975 L199 23.975" clip-path="url(#clipPath12)"/><text x="5" y="38.95" stroke="none" clip-path="url(#clipPath12)" font-family="sans-serif" font-size="14" xml:space="preserve">entry / display(OPERAND_1)</text></g><g fill="#FFF" fill-opacity="0" stroke="#FFF" stroke-opacity="0" transform="translate(1980,240)"><rect width="168.5" height="88.5" x=".5" y=".5" stroke="none" clip-path="url(#clipPath4)" rx="18" ry="18"/></g><g transform="translate(1980,240)"><rect width="168.5" height="88.5" x=".5" y=".5" fill="none" clip-path="url(#clipPath4)" rx="18" ry="18"/><text x="54" y="17.975" stroke="none" clip-path="url(#clipPath4)" font-family="sans-serif" font-size="14" font-weight="bold" xml:space="preserve">negated1</text><path fill="none" d="M1 23.975 L169 23.975" clip-path="url(#clipPath4)"/><text x="5" y="38.95" stroke="none" clip-path="url(#clipPath4)" font-family="sans-serif" font-size="14" xml:space="preserve">entry / negate(op1)</text><text x="5" y="54.925" stroke="none" clip-path="url(#clipPath4)" font-family="sans-serif" font-size="14" xml:space="preserve">OPER [&apos;-&apos;] / ;</text></g><g fill="#FFF" fill-opacity="0" stroke="#FFF" stroke-opacity="0" transform="translate(1100,200)"><rect width="628.5" height="148.5" x=".5" y=".5" stroke="none" clip-path="url(#clipPath13)" rx="20" ry="20"/></g><g transform="translate(1100,200)"><rect width="628.5" height="148.5" x=".5" y=".5" fill="none" clip-path="url(#clipPath13)" rx="20" ry="20"/><text x="296" y="17.975" stroke="none" clip-path="url(#clipPath13)" font-family="sans-serif" font-size="14" font-weight="bold" xml:space="preserve">ready</text><path fill="none" d="M1 23.975 L629 23.975" clip-path="url(#clipPath13)"/></g><g transform="translate(1240,60)"><circle cx="10.25" cy="10.25" r="8.75" stroke="none" clip-path="url(#clipPath2)"/><circle cx="10.25" cy="10.25" r="8.75" fill="none" clip-path="url(#clipPath2)"/></g><g fill="#FFF" fill-opacity="0" stroke="#FFF" stroke-opacity="0" transform="translate(1060,120)"><rect width="1198.5" height="1378.5" x=".5" y=".5" stroke="none" clip-path="url(#clipPath14)" rx="20" ry="20"/></g><g transform="translate(1060,120)"><rect width="1198.5" height="1378.5" x=".5" y=".5" fill="none" clip-path="url(#clipPath14)" rx="20" ry="20"/><text x="591" y="17.975" stroke="none" clip-path="url(#clipPath14)" font-family="sans-serif" font-size="14" font-weight="bold" xml:space="preserve">on</text><path fill="none" d="M1 23.975 L1199 23.975" clip-path="url(#clipPath14)"/><text x="5" y="38.95" stroke="none" clip-path="url(#clipPath14)" font-family="sans-serif" font-size="14" xml:space="preserve">entry / op1=&apos; 0&apos;; op2=&apos; 0&apos;</text><text x="5" y="54.925" stroke="none" clip-path="url(#clipPath14)" font-family="sans-serif" font-size="14" xml:space="preserve">exit /</text></g><g><path fill="none" d="M10.5 10.5 L10.5 40.5" clip-path="url(#clipPath15)" transform="translate(1690,340)"/><path fill="none" d="M10.5 40.5 L400.5 40.5" clip-path="url(#clipPath15)" transform="translate(1690,340)"/><path fill="none" d="M400.5 40.5 L400.5 189.5" clip-path="url(#clipPath15)" transform="translate(1690,340)"/><path fill="none" d="M394 178.7417 L400.5 190 L407 178.7417" clip-path="url(#clipPath15)" transform="translate(1690,340)"/><text x="243.61" y="36" stroke="none" clip-path="url(#clipPath15)" font-family="sans-serif" font-size="14" transform="translate(1690,340)" xml:space="preserve">POINT</text></g><g><path fill="none" d="M10.5 20.5 L90.5 20.5" clip-path="url(#clipPath16)" transform="translate(1440,140)"/><path fill="none" d="M90.5 20.5 L90.5 59.5" clip-path="url(#clipPath16)" transform="translate(1440,140)"/><path fill="none" d="M84 48.7417 L90.5 60 L97 48.7417" clip-path="url(#clipPath16)" transform="translate(1440,140)"/></g><g><path fill="none" d="M400.5 10.5 L400.5 330.5" clip-path="url(#clipPath17)" transform="translate(1680,900)"/><path fill="none" d="M400.5 330.5 L10.5 330.5" clip-path="url(#clipPath17)" transform="translate(1680,900)"/><path fill="none" d="M10.5 330.5 L10.5 409.5" clip-path="url(#clipPath17)" transform="translate(1680,900)"/><path fill="none" d="M4 398.7417 L10.5 410 L17 398.7417" clip-path="url(#clipPath17)" transform="translate(1680,900)"/><text x="251.469" y="326" stroke="none" clip-path="url(#clipPath17)" font-family="sans-serif" font-size="14" transform="translate(1680,900)" xml:space="preserve">DIGIT_1_9 / insert(op2)</text></g><g><path fill="none" d="M490.5 10.5 L490.5 300.5" clip-path="url(#clipPath18)" transform="translate(1550,900)"/><path fill="none" d="M490.5 300.5 L10.5 300.5" clip-path="url(#clipPath18)" transform="translate(1550,900)"/><path fill="none" d="M10.5 300.5 L10.5 409.5" clip-path="url(#clipPath18)" transform="translate(1550,900)"/><path fill="none" d="M4 398.7417 L10.5 410 L17 398.7417" clip-path="url(#clipPath18)" transform="translate(1550,900)"/><text x="313.548" y="296" stroke="none" clip-path="url(#clipPath18)" font-family="sans-serif" font-size="14" transform="translate(1550,900)" xml:space="preserve">DIGIT_0</text></g><g><path fill="none" d="M10.5 10.5 L10.5 219.5" clip-path="url(#clipPath19)" transform="translate(1490,1090)"/><path fill="none" d="M4 208.7417 L10.5 220 L17 208.7417" clip-path="url(#clipPath19)" transform="translate(1490,1090)"/><text x="14" y="38.975" stroke="none" clip-path="url(#clipPath19)" font-family="sans-serif" font-size="14" transform="translate(1490,1090)" xml:space="preserve">DIGIT_0</text></g><g><path fill="none" d="M10.5 10.5 L10.5 80.5" clip-path="url(#clipPath20)" transform="translate(1630,1090)"/><path fill="none" d="M10.5 80.5 L170.5 80.5" clip-path="url(#clipPath20)" transform="translate(1630,1090)"/><path fill="none" d="M170.5 80.5 L170.5 219.5" clip-path="url(#clipPath20)" transform="translate(1630,1090)"/><path fill="none" d="M164 208.7417 L170.5 220 L177 208.7417" clip-path="url(#clipPath20)" transform="translate(1630,1090)"/><text x="51.469" y="76" stroke="none" clip-path="url(#clipPath20)" font-family="sans-serif" font-size="14" transform="translate(1630,1090)" xml:space="preserve">DIGIT_1_9 / insert(op2)</text></g><g><path fill="none" d="M10.5 10.5 L10.5 50.5" clip-path="url(#clipPath21)" transform="translate(1670,1090)"/><path fill="none" d="M10.5 50.5 L250.5 50.5" clip-path="url(#clipPath21)" transform="translate(1670,1090)"/><path fill="none" d="M250.5 50.5 L250.5 219.5" clip-path="url(#clipPath21)" transform="translate(1670,1090)"/><path fill="none" d="M244 208.7417 L250.5 220 L257 208.7417" clip-path="url(#clipPath21)" transform="translate(1670,1090)"/><text x="134.317" y="46" stroke="none" clip-path="url(#clipPath21)" font-family="sans-serif" font-size="14" transform="translate(1670,1090)" xml:space="preserve">POINT / insert(op2)</text></g><g><path fill="none" d="M10.5 10.5 L10.5 409.5" clip-path="url(#clipPath22)" transform="translate(2110,900)"/><path fill="none" d="M4 398.7417 L10.5 410 L17 398.7417" clip-path="url(#clipPath22)" transform="translate(2110,900)"/><text x="14" y="217.988" stroke="none" clip-path="url(#clipPath22)" font-family="sans-serif" font-size="14" transform="translate(2110,900)" xml:space="preserve">POINT / insert(op2)</text></g><g><path fill="none" d="M300.5 10.5 L300.5 80.5" clip-path="url(#clipPath23)" transform="translate(1700,900)"/><path fill="none" d="M300.5 80.5 L11.5 80.5" clip-path="url(#clipPath23)" transform="translate(1700,900)"/><path fill="none" d="M22.2583 74 L11 80.5 L22.2583 87" clip-path="url(#clipPath23)" transform="translate(1700,900)"/><text x="147.833" y="76" stroke="none" clip-path="url(#clipPath23)" font-family="sans-serif" font-size="14" transform="translate(1700,900)" xml:space="preserve">CE / op2=-&apos; 0&apos;</text></g><g><path fill="none" d="M10.5 20.5 L259.5 20.5" clip-path="url(#clipPath24)" transform="translate(1700,840)"/><path fill="none" d="M248.7417 27 L260 20.5 L248.7417 14" clip-path="url(#clipPath24)" transform="translate(1700,840)"/><text x="104.324" y="16" stroke="none" clip-path="url(#clipPath24)" font-family="sans-serif" font-size="14" transform="translate(1700,840)" xml:space="preserve">OPER [&apos;-&apos;]</text></g><g><path fill="none" d="M10.5 10.5 L10.5 139.5" clip-path="url(#clipPath25)" transform="translate(1640,690)"/><path fill="none" d="M4 128.7417 L10.5 140 L17 128.7417" clip-path="url(#clipPath25)" transform="translate(1640,690)"/><text x="14" y="82.987" stroke="none" clip-path="url(#clipPath25)" font-family="sans-serif" font-size="14" transform="translate(1640,690)" xml:space="preserve">OPER</text></g><g><path fill="none" d="M10.5 10.5 L10.5 100.5" clip-path="url(#clipPath26)" transform="translate(1650,340)"/><path fill="none" d="M10.5 100.5 L200.5 100.5" clip-path="url(#clipPath26)" transform="translate(1650,340)"/><path fill="none" d="M200.5 100.5 L200.5 189.5" clip-path="url(#clipPath26)" transform="translate(1650,340)"/><path fill="none" d="M194 178.7417 L200.5 190 L207 178.7417" clip-path="url(#clipPath26)" transform="translate(1650,340)"/><text x="31.469" y="96" stroke="none" clip-path="url(#clipPath26)" font-family="sans-serif" font-size="14" transform="translate(1650,340)" xml:space="preserve">DIGIT_1_9 / insert(op1)</text></g><g><path fill="none" d="M10.5 140.5 L10.5 11.5" clip-path="url(#clipPath27)" transform="translate(1390,340)"/><path fill="none" d="M17 22.2583 L10.5 11 L4 22.2583" clip-path="url(#clipPath27)" transform="translate(1390,340)"/><text x="14" y="82.987" stroke="none" clip-path="url(#clipPath27)" font-family="sans-serif" font-size="14" transform="translate(1390,340)" xml:space="preserve">CE / op1=-&apos; 0&apos;</text></g><g><path fill="none" d="M10.5 10.5 L10.5 189.5" clip-path="url(#clipPath28)" transform="translate(1550,340)"/><path fill="none" d="M4 178.7417 L10.5 190 L17 178.7417" clip-path="url(#clipPath28)" transform="translate(1550,340)"/><text x="14" y="107.987" stroke="none" clip-path="url(#clipPath28)" font-family="sans-serif" font-size="14" transform="translate(1550,340)" xml:space="preserve">DIGIT_0</text></g><g><path fill="none" d="M400.5 10.5 L400.5 90.5" clip-path="url(#clipPath29)" transform="translate(1620,320)"/><path fill="none" d="M400.5 90.5 L10.5 90.5" clip-path="url(#clipPath29)" transform="translate(1620,320)"/><path fill="none" d="M10.5 90.5 L10.5 209.5" clip-path="url(#clipPath29)" transform="translate(1620,320)"/><path fill="none" d="M4 198.7417 L10.5 210 L17 198.7417" clip-path="url(#clipPath29)" transform="translate(1620,320)"/><text x="158.548" y="86" stroke="none" clip-path="url(#clipPath29)" font-family="sans-serif" font-size="14" transform="translate(1620,320)" xml:space="preserve">DIGIT_0</text></g><g><path fill="none" d="M180.5 10.5 L180.5 120.5" clip-path="url(#clipPath30)" transform="translate(1890,320)"/><path fill="none" d="M180.5 120.5 L10.5 120.5" clip-path="url(#clipPath30)" transform="translate(1890,320)"/><path fill="none" d="M10.5 120.5 L10.5 209.5" clip-path="url(#clipPath30)" transform="translate(1890,320)"/><path fill="none" d="M4 198.7417 L10.5 210 L17 198.7417" clip-path="url(#clipPath30)" transform="translate(1890,320)"/><text x="31.469" y="116" stroke="none" clip-path="url(#clipPath30)" font-family="sans-serif" font-size="14" transform="translate(1890,320)" xml:space="preserve">DIGIT_1_9 / insert(op1)</text></g><g><path fill="none" d="M10.5 10.5 L10.5 209.5" clip-path="url(#clipPath31)" transform="translate(2110,320)"/><path fill="none" d="M4 198.7417 L10.5 210 L17 198.7417" clip-path="url(#clipPath31)" transform="translate(2110,320)"/><text x="14" y="117.987" stroke="none" clip-path="url(#clipPath31)" font-family="sans-serif" font-size="14" transform="translate(2110,320)" xml:space="preserve">POINT / insert(op1)</text></g><g><path fill="none" d="M10.5 10.5 L10.5 40.5" clip-path="url(#clipPath32)" transform="translate(1900,610)"/><path fill="none" d="M10.5 40.5 L150.5 40.5" clip-path="url(#clipPath32)" transform="translate(1900,610)"/><path fill="none" d="M150.5 40.5 L150.5 11.5" clip-path="url(#clipPath32)" transform="translate(1900,610)"/><path fill="none" d="M157 22.2583 L150.5 11 L144 22.2583" clip-path="url(#clipPath32)" transform="translate(1900,610)"/><text x="19.317" y="36" stroke="none" clip-path="url(#clipPath32)" font-family="sans-serif" font-size="14" transform="translate(1900,610)" xml:space="preserve">POINT / insert(op1)</text></g><g><path fill="none" d="M10.5 10.5 L10.5 70.5" clip-path="url(#clipPath33)" transform="translate(1540,610)"/><path fill="none" d="M10.5 70.5 L580.5 70.5" clip-path="url(#clipPath33)" transform="translate(1540,610)"/><path fill="none" d="M580.5 70.5 L580.5 11.5" clip-path="url(#clipPath33)" transform="translate(1540,610)"/><path fill="none" d="M587 22.2583 L580.5 11 L574 22.2583" clip-path="url(#clipPath33)" transform="translate(1540,610)"/><text x="234.317" y="66" stroke="none" clip-path="url(#clipPath33)" font-family="sans-serif" font-size="14" transform="translate(1540,610)" xml:space="preserve">POINT / insert(op1)</text></g><g><path fill="none" d="M10.5 10.5 L10.5 40.5" clip-path="url(#clipPath34)" transform="translate(1600,610)"/><path fill="none" d="M10.5 40.5 L240.5 40.5" clip-path="url(#clipPath34)" transform="translate(1600,610)"/><path fill="none" d="M240.5 40.5 L240.5 11.5" clip-path="url(#clipPath34)" transform="translate(1600,610)"/><path fill="none" d="M247 22.2583 L240.5 11 L234 22.2583" clip-path="url(#clipPath34)" transform="translate(1600,610)"/><text x="51.469" y="36" stroke="none" clip-path="url(#clipPath34)" font-family="sans-serif" font-size="14" transform="translate(1600,610)" xml:space="preserve">DIGIT_1_9 / insert(op1)</text></g><g><path fill="none" d="M10.5 10.5 L10.5 70.5" clip-path="url(#clipPath35)" transform="translate(1510,1390)"/><path fill="none" d="M10.5 70.5 L600.5 70.5" clip-path="url(#clipPath35)" transform="translate(1510,1390)"/><path fill="none" d="M600.5 70.5 L600.5 11.5" clip-path="url(#clipPath35)" transform="translate(1510,1390)"/><path fill="none" d="M607 22.2583 L600.5 11 L594 22.2583" clip-path="url(#clipPath35)" transform="translate(1510,1390)"/><text x="244.317" y="66" stroke="none" clip-path="url(#clipPath35)" font-family="sans-serif" font-size="14" transform="translate(1510,1390)" xml:space="preserve">POINT / insert(op2)</text></g><g><path fill="none" d="M10.5 10.5 L10.5 40.5" clip-path="url(#clipPath36)" transform="translate(1800,1390)"/><path fill="none" d="M10.5 40.5 L190.5 40.5" clip-path="url(#clipPath36)" transform="translate(1800,1390)"/><path fill="none" d="M190.5 40.5 L190.5 11.5" clip-path="url(#clipPath36)" transform="translate(1800,1390)"/><path fill="none" d="M197 22.2583 L190.5 11 L184 22.2583" clip-path="url(#clipPath36)" transform="translate(1800,1390)"/><text x="39.317" y="36" stroke="none" clip-path="url(#clipPath36)" font-family="sans-serif" font-size="14" transform="translate(1800,1390)" xml:space="preserve">POINT / insert(op2)</text></g><g><path fill="none" d="M10.5 10.5 L10.5 40.5" clip-path="url(#clipPath37)" transform="translate(1560,1390)"/><path fill="none" d="M10.5 40.5 L210.5 40.5" clip-path="url(#clipPath37)" transform="translate(1560,1390)"/><path fill="none" d="M210.5 40.5 L210.5 11.5" clip-path="url(#clipPath37)" transform="translate(1560,1390)"/><path fill="none" d="M217 22.2583 L210.5 11 L204 22.2583" clip-path="url(#clipPath37)" transform="translate(1560,1390)"/><text x="36.469" y="36" stroke="none" clip-path="url(#clipPath37)" font-family="sans-serif" font-size="14" transform="translate(1560,1390)" xml:space="preserve">DIGIT_1_9 / insert(op2)</text></g><g><path fill="none" d="M10.5 10.5 L10.5 570.5" clip-path="url(#clipPath38)" transform="translate(1300,340)"/><path fill="none" d="M10.5 570.5 L99.5 570.5" clip-path="url(#clipPath38)" transform="translate(1300,340)"/><path fill="none" d="M88.7417 577 L100 570.5 L88.7417 564" clip-path="url(#clipPath38)" transform="translate(1300,340)"/><text x="14" y="342.988" stroke="none" clip-path="url(#clipPath38)" font-family="sans-serif" font-size="14" transform="translate(1300,340)" xml:space="preserve">OPER</text></g><g><path fill="none" d="M10.5 410.5 L10.5 11.5" clip-path="url(#clipPath39)" transform="translate(1130,320)"/><path fill="none" d="M17 22.2583 L10.5 11 L4 22.2583" clip-path="url(#clipPath39)" transform="translate(1130,320)"/><text x="14" y="394" stroke="none" clip-path="url(#clipPath39)" font-family="sans-serif" font-size="14" transform="translate(1130,320)" xml:space="preserve">[else]</text></g><g><path fill="none" d="M10.5 150.5 L10.5 10.5" clip-path="url(#clipPath40)" transform="translate(1180,770)"/><path fill="none" d="M10.5 10.5 L269.5 10.5" clip-path="url(#clipPath40)" transform="translate(1180,770)"/><path fill="none" d="M258.7417 17 L270 10.5 L258.7417 4" clip-path="url(#clipPath40)" transform="translate(1180,770)"/><text x="14" y="134" stroke="none" clip-path="url(#clipPath40)" font-family="sans-serif" font-size="14" transform="translate(1180,770)" xml:space="preserve">[error]</text></g><g><path fill="none" d="M10.5 10.5 L299.5 10.5" clip-path="url(#clipPath41)" transform="translate(1150,740)"/><path fill="none" d="M288.7417 17 L300 10.5 L288.7417 4" clip-path="url(#clipPath41)" transform="translate(1150,740)"/><text x="29" y="23.975" stroke="none" clip-path="url(#clipPath41)" font-family="sans-serif" font-size="14" transform="translate(1150,740)" xml:space="preserve">[error]</text></g><g><path fill="none" d="M210.5 680.5 L10.5 680.5" clip-path="url(#clipPath42)" transform="translate(1090,740)"/><path fill="none" d="M10.5 680.5 L10.5 10.5" clip-path="url(#clipPath42)" transform="translate(1090,740)"/><path fill="none" d="M10.5 10.5 L29.5 10.5" clip-path="url(#clipPath42)" transform="translate(1090,740)"/><path fill="none" d="M18.7417 17 L30 10.5 L18.7417 4" clip-path="url(#clipPath42)" transform="translate(1090,740)"/><text x="14" y="435" stroke="none" clip-path="url(#clipPath42)" font-family="sans-serif" font-size="14" transform="translate(1090,740)" xml:space="preserve">EQUALS /</text><text x="14" y="450.975" stroke="none" clip-path="url(#clipPath42)" font-family="sans-serif" font-size="14" transform="translate(1090,740)" xml:space="preserve">calculate()</text></g><g><path fill="none" d="M40.5 290.5 L10.5 290.5" clip-path="url(#clipPath43)" transform="translate(1260,1010)"/><path fill="none" d="M10.5 290.5 L10.5 10.5" clip-path="url(#clipPath43)" transform="translate(1260,1010)"/><path fill="none" d="M10.5 10.5 L109.5 10.5" clip-path="url(#clipPath43)" transform="translate(1260,1010)"/><path fill="none" d="M98.7417 17 L110 10.5 L98.7417 4" clip-path="url(#clipPath43)" transform="translate(1260,1010)"/><text x="14" y="122.987" stroke="none" clip-path="url(#clipPath43)" font-family="sans-serif" font-size="14" transform="translate(1260,1010)" xml:space="preserve">CE / op2=&apos; 0&apos;</text></g><g><path fill="none" d="M120.5 410.5 L10.5 410.5" clip-path="url(#clipPath44)" transform="translate(1180,950)"/><path fill="none" d="M10.5 410.5 L10.5 11.5" clip-path="url(#clipPath44)" transform="translate(1180,950)"/><path fill="none" d="M17 22.2583 L10.5 11 L4 22.2583" clip-path="url(#clipPath44)" transform="translate(1180,950)"/><text x="14" y="265" stroke="none" clip-path="url(#clipPath44)" font-family="sans-serif" font-size="14" transform="translate(1180,950)" xml:space="preserve">OPER /</text><text x="14" y="280.975" stroke="none" clip-path="url(#clipPath44)" font-family="sans-serif" font-size="14" transform="translate(1180,950)" xml:space="preserve">calculate()</text></g><g><path fill="none" d="M10.5 10.5 L199.5 10.5" clip-path="url(#clipPath45)" transform="translate(1200,930)"/><path fill="none" d="M188.7417 17 L200 10.5 L188.7417 4" clip-path="url(#clipPath45)" transform="translate(1200,930)"/><text x="29" y="23.975" stroke="none" clip-path="url(#clipPath45)" font-family="sans-serif" font-size="14" transform="translate(1200,930)" xml:space="preserve">[else]</text></g><g><path fill="none" d="M80.5 10.5 L80.5 50.5" clip-path="url(#clipPath46)" transform="translate(1580,990)"/><path fill="none" d="M80.5 50.5 L11.5 50.5" clip-path="url(#clipPath46)" transform="translate(1580,990)"/><path fill="none" d="M22.2583 44 L11 50.5 L22.2583 57" clip-path="url(#clipPath46)" transform="translate(1580,990)"/></g><g><path fill="none" d="M10.5 20.5 L279.5 20.5" clip-path="url(#clipPath47)" transform="translate(1700,250)"/><path fill="none" d="M268.7417 27 L280 20.5 L268.7417 14" clip-path="url(#clipPath47)" transform="translate(1700,250)"/><text x="114.324" y="16" stroke="none" clip-path="url(#clipPath47)" font-family="sans-serif" font-size="14" transform="translate(1700,250)" xml:space="preserve">OPER [&apos;-&apos;]</text></g><g><path fill="none" d="M280.5 20.5 L11.5 20.5" clip-path="url(#clipPath47)" transform="translate(1700,280)"/><path fill="none" d="M22.2583 14 L11 20.5 L22.2583 27" clip-path="url(#clipPath47)" transform="translate(1700,280)"/><text x="102.832" y="16" stroke="none" clip-path="url(#clipPath47)" font-family="sans-serif" font-size="14" transform="translate(1700,280)" xml:space="preserve">CE / op1=-&apos; 0&apos;</text></g><g><path fill="none" d="M10.5 10.5 L10.5 40.5" clip-path="url(#clipPath48)" transform="translate(1430,250)"/><path fill="none" d="M10.5 40.5 L79.5 40.5" clip-path="url(#clipPath48)" transform="translate(1430,250)"/><path fill="none" d="M68.7417 47 L80 40.5 L68.7417 34" clip-path="url(#clipPath48)" transform="translate(1430,250)"/></g><g><path fill="none" d="M10.5 20.5 L180.5 20.5" clip-path="url(#clipPath12)" transform="translate(1240,50)"/><path fill="none" d="M180.5 20.5 L180.5 69.5" clip-path="url(#clipPath12)" transform="translate(1240,50)"/><path fill="none" d="M174 58.7417 L180.5 70 L187 58.7417" clip-path="url(#clipPath12)" transform="translate(1240,50)"/></g><g><path fill="none" d="M10.5 70.5 L10.5 20.5" clip-path="url(#clipPath12)" transform="translate(1470,50)"/><path fill="none" d="M10.5 20.5 L180.5 20.5" clip-path="url(#clipPath12)" transform="translate(1470,50)"/><path fill="none" d="M180.5 20.5 L180.5 69.5" clip-path="url(#clipPath12)" transform="translate(1470,50)"/><path fill="none" d="M174 58.7417 L180.5 70 L187 58.7417" clip-path="url(#clipPath12)" transform="translate(1470,50)"/><text x="89.945" y="16" stroke="none" clip-path="url(#clipPath12)" font-family="sans-serif" font-size="14" transform="translate(1470,50)" xml:space="preserve">C</text></g></g></svg>