<svg xmlns="http://www.w3.org/2000/svg" xmlns:svg="http://www.w3.org/2000/svg" id="svg817" width="745" height="524" contentStyleType="text/css" data-diagram-type="STATE" preserveAspectRatio="none" version="1.1" viewBox="0 0 745 524" zoomAndPan="magnify"><g style="display:inline" id="g815"><g id="CONNECTED"><rect id="rect718" width="108.539" height="50.266" x="362.83" y="87" fill="#0e0" rx="12.5" ry="12.5" style="stroke:#181818;stroke-width:.5"/><line id="line720" x1="362.83" x2="471.369" y1="113.297" y2="113.297" style="stroke:#181818;stroke-width:.5"/><text id="text722" x="372.83" y="104.995" fill="#000" font-family="sans-serif" font-size="14" lengthAdjust="spacing" textLength="88.539">CONNECTED</text></g><g id="CONFIRM_POWERSAVE"><rect id="rect727" width="181.02" height="50.266" x="217.59" y="214.27" fill="#f1f1f1" rx="12.5" ry="12.5" style="stroke:#181818;stroke-width:.5"/><line id="line729" x1="217.59" x2="398.611" y1="240.567" y2="240.567" style="stroke:#181818;stroke-width:.5"/><text id="text731" x="227.59" y="232.265" fill="#000" font-family="sans-serif" font-size="14" lengthAdjust="spacing" textLength="161.02">CONFIRM_POWERSAVE</text><text id="text733" x="222.59" y="256.706" fill="#000" font-family="sans-serif" font-size="12" lengthAdjust="spacing" textLength="145.693">Send PSC command ack</text></g><g id="WAKEUP"><rect id="rect736" width="159.565" height="50.266" x="494.32" y="468.53" fill="#f1f1f1" rx="12.5" ry="12.5" style="stroke:#181818;stroke-width:.5"/><line id="line738" x1="494.32" x2="653.885" y1="494.827" y2="494.827" style="stroke:#181818;stroke-width:.5"/><text id="text740" x="544.034" y="486.525" fill="#000" font-family="sans-serif" font-size="14" lengthAdjust="spacing" textLength="60.136">WAKEUP</text><text id="text742" x="499.32" y="510.966" fill="#000" font-family="sans-serif" font-size="12" lengthAdjust="spacing" textLength="139.565">Start transmitting flags</text></g><circle id="ellipse745" cx="417.1" cy="16" r="10" fill="#222" style="stroke:#222;stroke-width:1"/><g id="ENTER_POWERSAVE"><rect id="rect747" width="162.208" height="50" x="7" y="214.4" fill="#f1f1f1" rx="12.5" ry="12.5" style="stroke:#181818;stroke-width:.5"/><line id="line749" x1="7" x2="169.208" y1="240.697" y2="240.697" style="stroke:#181818;stroke-width:.5"/><text id="text751" x="17" y="232.395" fill="#000" font-family="sans-serif" font-size="14" lengthAdjust="spacing" textLength="142.208">ENTER_POWERSAVE</text></g><g id="POWERSAVE"><rect id="rect754" width="108.765" height="50" x="346.72" y="341.53" fill="#f1f1f1" rx="12.5" ry="12.5" style="stroke:#181818;stroke-width:.5"/><line id="line756" x1="346.72" x2="455.485" y1="367.827" y2="367.827" style="stroke:#181818;stroke-width:.5"/><text id="text758" x="356.72" y="359.525" fill="#000" font-family="sans-serif" font-size="14" lengthAdjust="spacing" textLength="88.765">POWERSAVE</text></g><g id="link_.start._CONNECTED" class="link" data-entity-1=".start." data-entity-2="CONNECTED" data-source-line="2" data-uid="lnk3"><path style="stroke:#181818;stroke-width:1" id="*start*-to-CONNECTED" fill="none" d="m 417.1,26.37 c 0,13.95 0,34.66 0,54.38"/><polygon id="polygon762" fill="#181818" points="413.1 77.75 417.1 86.75 421.1 77.75 417.1 81.75" style="stroke:#181818;stroke-width:1"/></g><g id="link_CONNECTED_CONNECTED" class="link" data-entity-1="CONNECTED" data-entity-2="CONNECTED" data-source-line="4" data-uid="lnk4"><path style="stroke:#181818;stroke-width:1" id="CONNECTED-to-CONNECTED" fill="none" d="m 471.58,101.71 c 19.21,-0.17 34.79,3.31 34.79,10.43 0,7.11 -9.5802,10.6431 -28.7902,10.4731"/><polygon id="polygon766" fill="#181818" points="480.615 118.64 471.58 122.56 480.544 126.639 476.58 122.604" style="stroke:#181818;stroke-width:1"/><text id="text768" x="518.683" y="109.207" fill="#000" font-family="sans-serif" font-size="13" lengthAdjust="spacing" textLength="87.039">pipe transmit</text><text id="text770" x="512.37" y="124.34" fill="#000" font-family="sans-serif" font-size="13" lengthAdjust="spacing" textLength="99.665">reset idle timer</text></g><g id="link_CONNECTED_ENTER_POWERSAVE" class="link" data-entity-1="CONNECTED" data-entity-2="ENTER_POWERSAVE" data-source-line="6" data-uid="lnk6"><path style="stroke:#181818;stroke-width:1" id="CONNECTED-to-ENTER_POWERSAVE" fill="none" d="m 362.56,117.9 c -50.91,6.11 -127.89,19.73 -188.46,49.37 -23.84,11.67 -42.476,27.0499 -58.666,42.6999"/><polygon id="polygon774" fill="#181818" points="114.811 205.009 111.12 214.14 120.371 210.761 114.715 210.665" style="stroke:#181818;stroke-width:1"/><text id="text776" x="175.1" y="180.337" fill="#000" font-family="sans-serif" font-size="13" lengthAdjust="spacing" textLength="130.292">Idle timeout expires</text></g><g id="link_ENTER_POWERSAVE_POWERSAVE" class="link" data-entity-1="ENTER_POWERSAVE" data-entity-2="POWERSAVE" data-source-line="7" data-uid="lnk8"><path style="stroke:#181818;stroke-width:1" id="ENTER_POWERSAVE-to-POWERSAVE" fill="none" d="m 82.5,264.69 c -2,15.27 -1.49,34.37 9.6,46.84 32.9,36.98 168.8364,48.3936 248.4064,52.0636"/><polygon id="polygon780" fill="#181818" points="337.325 367.451 346.5 363.87 337.694 359.46 341.505 363.64" style="stroke:#181818;stroke-width:1"/><text id="text782" x="93.1" y="307.597" fill="#000" font-family="sans-serif" font-size="13" lengthAdjust="spacing" textLength="192.15">PSC command acknowledged</text></g><g id="link_CONNECTED_CONFIRM_POWERSAVE" class="link" data-entity-1="CONNECTED" data-entity-2="CONFIRM_POWERSAVE" data-source-line="10" data-uid="lnk9"><path style="stroke:#181818;stroke-width:1" id="CONNECTED-to-CONFIRM_POWERSAVE" fill="none" d="m 362.65,133.87 c -15.21,8.24 -30.35,19.22 -40.55,33.4 -9.7,13.49 -12.7018,25.9946 -13.7318,40.7346"/><polygon id="polygon786" fill="#181818" points="304.587 204.733 307.95 213.99 312.568 205.291 308.298 209.002" style="stroke:#181818;stroke-width:1"/><text id="text788" x="323.1" y="180.337" fill="#000" font-family="sans-serif" font-size="13" lengthAdjust="spacing" textLength="149.798">Receive PSC command</text></g><g id="link_CONFIRM_POWERSAVE_POWERSAVE" class="link" data-entity-1="CONFIRM_POWERSAVE" data-entity-2="POWERSAVE" data-source-line="11" data-uid="lnk10"><path style="stroke:#181818;stroke-width:1" id="CONFIRM_POWERSAVE-to-POWERSAVE" fill="none" d="m 297.75,264.73 c -4.5,14.54 -7.06,32.83 1.35,46.8 10.55,17.51 23.4143,27.1649 41.6543,35.4249"/><polygon id="polygon792" fill="#181818" points="336.371 349.361 346.22 349.43 339.672 342.074 341.665 347.367" style="stroke:#181818;stroke-width:1"/><text id="text794" x="300.1" y="307.597" fill="#000" font-family="sans-serif" font-size="13" lengthAdjust="spacing" textLength="172.041">Transmit ringbuffer empty</text></g><g id="link_POWERSAVE_WAKEUP" class="link" data-entity-1="POWERSAVE" data-entity-2="WAKEUP" data-source-line="14" data-uid="lnk11"><path style="stroke:#181818;stroke-width:1" id="POWERSAVE-to-WAKEUP" fill="none" d="m 434.87,391.96 c 30.39,21.98 69.9481,50.5941 100.3981,72.6141"/><polygon id="polygon798" fill="#181818" points="530.493 466.057 540.13 468.09 535.181 459.575 536.078 465.16" style="stroke:#181818;stroke-width:1"/><text id="text800" x="498.96" y="434.597" fill="#000" font-family="sans-serif" font-size="13" lengthAdjust="spacing" textLength="117.501">DLC pipe transmit</text></g><g id="link_WAKEUP_CONNECTED" class="link" data-entity-1="WAKEUP" data-entity-2="CONNECTED" data-source-line="15" data-uid="lnk12"><path style="stroke:#181818;stroke-width:1" id="WAKEUP-to-CONNECTED" fill="none" d="m 604.68,468.08 c 8.22,-8.41 16.04,-18.5 20.42,-29.55 36.96,-93.13 32.79,-141.03 -23,-224.26 -30.26,-45.15 -81.9782,-70.0221 -124.8582,-84.5721"/><polygon id="polygon804" fill="#181818" points="481.368 126.874 471.56 127.77 478.797 134.45 476.295 129.377" style="stroke:#181818;stroke-width:1"/><text id="text806" x="647.6" y="307.597" fill="#000" font-family="sans-serif" font-size="13" lengthAdjust="spacing" textLength="91.355">flags received</text></g><g style="display:inline" id="link_POWERSAVE_CONNECTED" class="link" data-entity-1="POWERSAVE" data-entity-2="CONNECTED" data-source-line="17" data-uid="lnk13"><path style="stroke:#181818;stroke-width:1" id="POWERSAVE-to-CONNECTED" fill="none" d="m 449.88,341.24 c 10.91,-7.89 21.06,-17.77 27.22,-29.71 29.41,-56.97 26.05,-85.67 0,-144.26 -5.07,-11.41 -9.3701,-17.4612 -18.6901,-25.6812"/><polygon id="polygon810" fill="#181818" points="458.014 146.573 457.66 140.927 463.306 140.573 453.91 137.62" style="stroke:#181818;stroke-width:1"/><text id="text812" x="498.92" y="243.967" fill="#000" font-family="sans-serif" font-size="13" lengthAdjust="spacing" textLength="94.161">Receive frame</text></g></g></svg>